<svg width="288" height="288" viewBox="0 0 288 288" fill="none" xmlns="http://www.w3.org/2000/svg">
<g filter="url(#filter0_dii_2105_3962)">
<rect x="80.5" y="80.5" width="127" height="127" rx="31.5" stroke="#9292AF" shape-rendering="crispEdges"/>
<path d="M150.959 176.514C146.343 176.514 141.725 176.514 137.108 176.514C136.41 176.243 135.966 175.798 135.853 175.002C135.487 172.408 135.092 169.817 134.673 167.231C134.63 166.968 134.41 166.652 134.181 166.512C132.575 165.536 130.949 164.593 129.315 163.665C129.136 163.564 128.832 163.559 128.633 163.634C127.351 164.121 126.082 164.65 124.805 165.151C123.389 165.705 121.981 166.281 120.545 166.768C119.721 167.047 119.1 166.724 118.679 165.987C116.642 162.427 114.607 158.867 112.573 155.303C111.923 154.165 112.061 153.48 113.076 152.66C115.102 151.024 117.129 149.39 119.142 147.738C119.305 147.605 119.492 147.323 119.458 147.152C119.087 145.316 119.19 143.486 119.501 141.663C119.596 141.111 119.461 140.785 119.007 140.448C116.983 138.95 114.988 137.412 112.986 135.882C111.886 135.041 111.727 134.239 112.405 133.054C114.344 129.658 116.283 126.261 118.222 122.865C119.012 121.482 119.914 121.179 121.402 121.8C123.683 122.752 125.957 123.717 128.248 124.643C128.489 124.741 128.872 124.712 129.099 124.584C130.749 123.646 132.38 122.674 134.001 121.69C134.16 121.593 134.287 121.346 134.317 121.152C134.736 118.458 135.126 115.76 135.545 113.067C135.714 111.99 136.356 111.469 137.465 111.469C141.657 111.465 145.852 111.465 150.044 111.469C151.184 111.471 151.64 111.949 151.627 113.083C151.626 113.187 151.661 113.29 151.677 113.394C152.062 115.9 152.47 118.402 152.817 120.914C152.887 121.425 153.09 121.674 153.52 121.911C155.016 122.741 156.497 123.597 157.948 124.5C158.356 124.754 158.65 124.802 159.096 124.619C161.517 123.622 163.952 122.656 166.387 121.693C167.663 121.189 168.342 121.442 169.016 122.621C171 126.089 172.986 129.557 174.968 133.027C175.605 134.142 175.477 134.809 174.478 135.619C172.621 137.126 170.778 138.653 168.889 140.12C168.252 140.615 167.791 141.059 168.196 141.918C168.271 142.078 168.247 142.295 168.238 142.483C168.164 143.894 168.096 145.306 167.994 146.717C167.96 147.175 168.03 147.486 168.454 147.775C170.764 149.345 173.04 150.965 175.345 152.541C175.846 152.883 176.082 153.311 175.974 153.878C175.897 154.283 175.756 154.695 175.554 155.053C173.563 158.567 171.552 162.068 169.547 165.573C168.798 166.885 168.226 167.09 166.847 166.54C164.435 165.578 162.024 164.609 159.605 163.663C159.387 163.578 159.056 163.557 158.867 163.665C157.231 164.589 155.61 165.538 154.001 166.511C153.783 166.642 153.558 166.925 153.518 167.166C153.112 169.625 152.691 172.086 152.388 174.559C152.269 175.549 151.836 176.153 150.959 176.514ZM132.338 144.157C132.344 150.358 137.551 155.562 143.752 155.567C149.987 155.572 155.204 150.343 155.176 144.115C155.149 137.907 149.895 132.672 143.743 132.722C137.519 132.773 132.331 137.976 132.338 144.157Z" fill="url(#paint0_linear_2105_3962)"/>
<path d="M150.959 176.514C146.343 176.514 141.725 176.514 137.108 176.514C136.41 176.243 135.966 175.798 135.853 175.002C135.487 172.408 135.092 169.817 134.673 167.231C134.63 166.968 134.41 166.652 134.181 166.512C132.575 165.536 130.949 164.593 129.315 163.665C129.136 163.564 128.832 163.559 128.633 163.634C127.351 164.121 126.082 164.65 124.805 165.151C123.389 165.705 121.981 166.281 120.545 166.768C119.721 167.047 119.1 166.724 118.679 165.987C116.642 162.427 114.607 158.867 112.573 155.303C111.923 154.165 112.061 153.48 113.076 152.66C115.102 151.024 117.129 149.39 119.142 147.738C119.305 147.605 119.492 147.323 119.458 147.152C119.087 145.316 119.19 143.486 119.501 141.663C119.596 141.111 119.461 140.785 119.007 140.448C116.983 138.95 114.988 137.412 112.986 135.882C111.886 135.041 111.727 134.239 112.405 133.054C114.344 129.658 116.283 126.261 118.222 122.865C119.012 121.482 119.914 121.179 121.402 121.8C123.683 122.752 125.957 123.717 128.248 124.643C128.489 124.741 128.872 124.712 129.099 124.584C130.749 123.646 132.38 122.674 134.001 121.69C134.16 121.593 134.287 121.346 134.317 121.152C134.736 118.458 135.126 115.76 135.545 113.067C135.714 111.99 136.356 111.469 137.465 111.469C141.657 111.465 145.852 111.465 150.044 111.469C151.184 111.471 151.64 111.949 151.627 113.083C151.626 113.187 151.661 113.29 151.677 113.394C152.062 115.9 152.47 118.402 152.817 120.914C152.887 121.425 153.09 121.674 153.52 121.911C155.016 122.741 156.497 123.597 157.948 124.5C158.356 124.754 158.65 124.802 159.096 124.619C161.517 123.622 163.952 122.656 166.387 121.693C167.663 121.189 168.342 121.442 169.016 122.621C171 126.089 172.986 129.557 174.968 133.027C175.605 134.142 175.477 134.809 174.478 135.619C172.621 137.126 170.778 138.653 168.889 140.12C168.252 140.615 167.791 141.059 168.196 141.918C168.271 142.078 168.247 142.295 168.238 142.483C168.164 143.894 168.096 145.306 167.994 146.717C167.96 147.175 168.03 147.486 168.454 147.775C170.764 149.345 173.04 150.965 175.345 152.541C175.846 152.883 176.082 153.311 175.974 153.878C175.897 154.283 175.756 154.695 175.554 155.053C173.563 158.567 171.552 162.068 169.547 165.573C168.798 166.885 168.226 167.09 166.847 166.54C164.435 165.578 162.024 164.609 159.605 163.663C159.387 163.578 159.056 163.557 158.867 163.665C157.231 164.589 155.61 165.538 154.001 166.511C153.783 166.642 153.558 166.925 153.518 167.166C153.112 169.625 152.691 172.086 152.388 174.559C152.269 175.549 151.836 176.153 150.959 176.514ZM132.338 144.157C132.344 150.358 137.551 155.562 143.752 155.567C149.987 155.572 155.204 150.343 155.176 144.115C155.149 137.907 149.895 132.672 143.743 132.722C137.519 132.773 132.331 137.976 132.338 144.157Z" fill="url(#paint1_linear_2105_3962)"/>
</g>
<rect opacity="0.04" x="0.5" y="0.5" width="287" height="287" rx="111.5" stroke="#9292AF"/>
<rect opacity="0.1" x="20.5" y="20.5" width="247" height="247" rx="91.5" stroke="#9292AF"/>
<rect opacity="0.2" x="40.5" y="40.5" width="207" height="207" rx="71.5" stroke="#9292AF"/>
<rect opacity="0.4" x="60.5" y="60.5" width="167" height="167" rx="51.5" stroke="#9292AF"/>
<defs>
<filter id="filter0_dii_2105_3962" x="61" y="79" width="166" height="173" filterUnits="userSpaceOnUse" color-interpolation-filters="sRGB">
<feFlood flood-opacity="0" result="BackgroundImageFix"/>
<feColorMatrix in="SourceAlpha" type="matrix" values="0 0 0 0 0 0 0 0 0 0 0 0 0 0 0 0 0 0 127 0" result="hardAlpha"/>
<feMorphology radius="1" operator="erode" in="SourceAlpha" result="effect1_dropShadow_2105_3962"/>
<feOffset dy="25"/>
<feGaussianBlur stdDeviation="10"/>
<feComposite in2="hardAlpha" operator="out"/>
<feColorMatrix type="matrix" values="0 0 0 0 0 0 0 0 0 0 0 0 0 0 0 0 0 0 0.2 0"/>
<feBlend mode="normal" in2="BackgroundImageFix" result="effect1_dropShadow_2105_3962"/>
<feBlend mode="normal" in="SourceGraphic" in2="effect1_dropShadow_2105_3962" result="shape"/>
<feColorMatrix in="SourceAlpha" type="matrix" values="0 0 0 0 0 0 0 0 0 0 0 0 0 0 0 0 0 0 127 0" result="hardAlpha"/>
<feMorphology radius="1" operator="erode" in="SourceAlpha" result="effect2_innerShadow_2105_3962"/>
<feOffset dy="1"/>
<feGaussianBlur stdDeviation="0.5"/>
<feComposite in2="hardAlpha" operator="arithmetic" k2="-1" k3="1"/>
<feColorMatrix type="matrix" values="0 0 0 0 0.8 0 0 0 0 0.780392 0 0 0 0 0.780392 0 0 0 0.2 0"/>
<feBlend mode="normal" in2="shape" result="effect2_innerShadow_2105_3962"/>
<feColorMatrix in="SourceAlpha" type="matrix" values="0 0 0 0 0 0 0 0 0 0 0 0 0 0 0 0 0 0 127 0" result="hardAlpha"/>
<feMorphology radius="1" operator="erode" in="SourceAlpha" result="effect3_innerShadow_2105_3962"/>
<feOffset dy="-1"/>
<feGaussianBlur stdDeviation="0.5"/>
<feComposite in2="hardAlpha" operator="arithmetic" k2="-1" k3="1"/>
<feColorMatrix type="matrix" values="0 0 0 0 0.8 0 0 0 0 0.780392 0 0 0 0 0.780392 0 0 0 0.2 0"/>
<feBlend mode="normal" in2="effect2_innerShadow_2105_3962" result="effect3_innerShadow_2105_3962"/>
</filter>
<linearGradient id="paint0_linear_2105_3962" x1="144" y1="111.466" x2="144" y2="176.514" gradientUnits="userSpaceOnUse">
<stop stop-color="#5F636C"/>
<stop offset="0.435" stop-color="#9FA4AF"/>
<stop offset="1" stop-color="#6F7582"/>
</linearGradient>
<linearGradient id="paint1_linear_2105_3962" x1="219.073" y1="143.99" x2="114.977" y2="144.699" gradientUnits="userSpaceOnUse">
<stop stop-color="#531270"/>
<stop offset="1" stop-color="#F84A6D"/>
</linearGradient>
</defs>
</svg>
