<svg width="288" height="288" viewBox="0 0 288 288" fill="none" xmlns="http://www.w3.org/2000/svg">
<g filter="url(#filter0_dii_2105_3940)">
<rect x="80.5" y="80.5" width="127" height="127" rx="31.5" stroke="#9292AF" shape-rendering="crispEdges"/>
<path d="M112 143.364C112.608 142.534 113.144 141.639 113.837 140.888C118.199 136.157 123.094 132.094 128.844 129.133C134.346 126.298 140.161 124.791 146.381 125.148C149.934 125.352 153.354 126.205 156.637 127.583C161.866 129.782 166.385 133.039 170.446 136.95C172.018 138.465 173.502 140.074 174.988 141.676C176.33 143.124 176.334 144.866 175.021 146.334C170.759 151.099 165.956 155.207 160.334 158.305C156.463 160.438 152.363 161.95 147.977 162.573C142.577 163.338 137.328 162.683 132.247 160.681C127.526 158.823 123.324 156.118 119.599 152.713C117.237 150.554 115.061 148.192 112.83 145.895C112.481 145.537 112.274 145.044 112.002 144.613C112 144.197 112 143.781 112 143.364ZM157.529 144.644C157.958 137.609 152.494 130.824 144.529 130.535C137.576 130.282 131.128 135.557 130.653 143.218C130.206 150.435 135.706 157.058 143.474 157.449C150.739 157.814 157.225 152.143 157.529 144.644Z" fill="url(#paint0_linear_2105_3940)"/>
<path d="M112 143.364C112.608 142.534 113.144 141.639 113.837 140.888C118.199 136.157 123.094 132.094 128.844 129.133C134.346 126.298 140.161 124.791 146.381 125.148C149.934 125.352 153.354 126.205 156.637 127.583C161.866 129.782 166.385 133.039 170.446 136.95C172.018 138.465 173.502 140.074 174.988 141.676C176.33 143.124 176.334 144.866 175.021 146.334C170.759 151.099 165.956 155.207 160.334 158.305C156.463 160.438 152.363 161.95 147.977 162.573C142.577 163.338 137.328 162.683 132.247 160.681C127.526 158.823 123.324 156.118 119.599 152.713C117.237 150.554 115.061 148.192 112.83 145.895C112.481 145.537 112.274 145.044 112.002 144.613C112 144.197 112 143.781 112 143.364ZM157.529 144.644C157.958 137.609 152.494 130.824 144.529 130.535C137.576 130.282 131.128 135.557 130.653 143.218C130.206 150.435 135.706 157.058 143.474 157.449C150.739 157.814 157.225 152.143 157.529 144.644Z" fill="url(#paint1_linear_2105_3940)"/>
<path d="M134.607 143.959C134.627 138.682 138.875 134.476 144.163 134.497C149.377 134.518 153.612 138.796 153.6 144.033C153.589 149.288 149.316 153.508 144.028 153.485C138.786 153.462 134.587 149.218 134.607 143.959ZM138.222 143.662C138.176 144.669 138.621 145.292 139.44 145.369C140.298 145.45 140.893 144.884 140.994 143.888C141.177 142.112 142.227 141.085 144.066 140.878C144.966 140.778 145.548 140.163 145.482 139.382C145.415 138.567 144.799 138.079 143.87 138.104C140.868 138.181 138.357 140.649 138.222 143.662Z" fill="url(#paint2_linear_2105_3940)"/>
<path d="M134.607 143.959C134.627 138.682 138.875 134.476 144.163 134.497C149.377 134.518 153.612 138.796 153.6 144.033C153.589 149.288 149.316 153.508 144.028 153.485C138.786 153.462 134.587 149.218 134.607 143.959ZM138.222 143.662C138.176 144.669 138.621 145.292 139.44 145.369C140.298 145.45 140.893 144.884 140.994 143.888C141.177 142.112 142.227 141.085 144.066 140.878C144.966 140.778 145.548 140.163 145.482 139.382C145.415 138.567 144.799 138.079 143.87 138.104C140.868 138.181 138.357 140.649 138.222 143.662Z" fill="url(#paint3_linear_2105_3940)"/>
</g>
<rect opacity="0.04" x="0.5" y="0.5" width="287" height="287" rx="111.5" stroke="#9292AF"/>
<rect opacity="0.1" x="20.5" y="20.5" width="247" height="247" rx="91.5" stroke="#9292AF"/>
<rect opacity="0.2" x="40.5" y="40.5" width="207" height="207" rx="71.5" stroke="#9292AF"/>
<rect opacity="0.4" x="60.5" y="60.5" width="167" height="167" rx="51.5" stroke="#9292AF"/>
<defs>
<filter id="filter0_dii_2105_3940" x="61" y="79" width="166" height="173" filterUnits="userSpaceOnUse" color-interpolation-filters="sRGB">
<feFlood flood-opacity="0" result="BackgroundImageFix"/>
<feColorMatrix in="SourceAlpha" type="matrix" values="0 0 0 0 0 0 0 0 0 0 0 0 0 0 0 0 0 0 127 0" result="hardAlpha"/>
<feMorphology radius="1" operator="erode" in="SourceAlpha" result="effect1_dropShadow_2105_3940"/>
<feOffset dy="25"/>
<feGaussianBlur stdDeviation="10"/>
<feComposite in2="hardAlpha" operator="out"/>
<feColorMatrix type="matrix" values="0 0 0 0 0 0 0 0 0 0 0 0 0 0 0 0 0 0 0.2 0"/>
<feBlend mode="normal" in2="BackgroundImageFix" result="effect1_dropShadow_2105_3940"/>
<feBlend mode="normal" in="SourceGraphic" in2="effect1_dropShadow_2105_3940" result="shape"/>
<feColorMatrix in="SourceAlpha" type="matrix" values="0 0 0 0 0 0 0 0 0 0 0 0 0 0 0 0 0 0 127 0" result="hardAlpha"/>
<feMorphology radius="1" operator="erode" in="SourceAlpha" result="effect2_innerShadow_2105_3940"/>
<feOffset dy="1"/>
<feGaussianBlur stdDeviation="0.5"/>
<feComposite in2="hardAlpha" operator="arithmetic" k2="-1" k3="1"/>
<feColorMatrix type="matrix" values="0 0 0 0 0.8 0 0 0 0 0.780392 0 0 0 0 0.780392 0 0 0 0.2 0"/>
<feBlend mode="normal" in2="shape" result="effect2_innerShadow_2105_3940"/>
<feColorMatrix in="SourceAlpha" type="matrix" values="0 0 0 0 0 0 0 0 0 0 0 0 0 0 0 0 0 0 127 0" result="hardAlpha"/>
<feMorphology radius="1" operator="erode" in="SourceAlpha" result="effect3_innerShadow_2105_3940"/>
<feOffset dy="-1"/>
<feGaussianBlur stdDeviation="0.5"/>
<feComposite in2="hardAlpha" operator="arithmetic" k2="-1" k3="1"/>
<feColorMatrix type="matrix" values="0 0 0 0 0.8 0 0 0 0 0.780392 0 0 0 0 0.780392 0 0 0 0.2 0"/>
<feBlend mode="normal" in2="effect2_innerShadow_2105_3940" result="effect3_innerShadow_2105_3940"/>
</filter>
<linearGradient id="paint0_linear_2105_3940" x1="144" y1="125.096" x2="144" y2="162.884" gradientUnits="userSpaceOnUse">
<stop stop-color="#5F636C"/>
<stop offset="0.435" stop-color="#9FA4AF"/>
<stop offset="1" stop-color="#6F7582"/>
</linearGradient>
<linearGradient id="paint1_linear_2105_3940" x1="219.073" y1="143.99" x2="114.987" y2="145.21" gradientUnits="userSpaceOnUse">
<stop stop-color="#531270"/>
<stop offset="1" stop-color="#F84A6D"/>
</linearGradient>
<linearGradient id="paint2_linear_2105_3940" x1="144.103" y1="134.497" x2="144.103" y2="153.485" gradientUnits="userSpaceOnUse">
<stop stop-color="#5F636C"/>
<stop offset="0.435" stop-color="#9FA4AF"/>
<stop offset="1" stop-color="#6F7582"/>
</linearGradient>
<linearGradient id="paint3_linear_2105_3940" x1="166.383" y1="143.991" x2="135.49" y2="144.205" gradientUnits="userSpaceOnUse">
<stop stop-color="#531270"/>
<stop offset="1" stop-color="#F84A6D"/>
</linearGradient>
</defs>
</svg>
