<svg width="288" height="288" viewBox="0 0 288 288" fill="none" xmlns="http://www.w3.org/2000/svg">
<g filter="url(#filter0_dii_2105_4003)">
<rect x="80.5" y="80.5" width="127" height="127" rx="31.5" stroke="#9292AF" shape-rendering="crispEdges"/>
<path d="M156.868 137.392C163.225 137.392 169.524 137.392 175.994 137.392C166.876 147.753 157.848 158.012 148.817 168.272C148.765 168.252 148.716 168.232 148.665 168.213C151.397 157.943 154.131 147.674 156.868 137.392Z" fill="url(#paint0_linear_2105_4003)"/>
<path d="M156.868 137.392C163.225 137.392 169.524 137.392 175.994 137.392C166.876 147.753 157.848 158.012 148.817 168.272C148.765 168.252 148.716 168.232 148.665 168.213C151.397 157.943 154.131 147.674 156.868 137.392Z" fill="url(#paint1_linear_2105_4003)"/>
<path d="M112 137.364C113.766 137.364 115.317 137.364 116.868 137.364C121.4 137.364 125.934 137.372 130.467 137.353C130.968 137.351 131.178 137.479 131.314 137.995C133.934 147.891 136.577 157.779 139.213 167.669C139.262 167.851 139.278 168.043 139.345 168.434C130.182 158.024 121.153 147.764 112 137.364Z" fill="url(#paint2_linear_2105_4003)"/>
<path d="M112 137.364C113.766 137.364 115.317 137.364 116.868 137.364C121.4 137.364 125.934 137.372 130.467 137.353C130.968 137.351 131.178 137.479 131.314 137.995C133.934 147.891 136.577 157.779 139.213 167.669C139.262 167.851 139.278 168.043 139.345 168.434C130.182 158.024 121.153 147.764 112 137.364Z" fill="url(#paint3_linear_2105_4003)"/>
<path d="M143.925 168.234C141.197 157.983 138.468 147.733 135.722 137.418C141.25 137.418 146.724 137.418 152.292 137.418C149.554 147.705 146.821 157.971 144.091 168.234C144.036 168.234 143.98 168.234 143.925 168.234Z" fill="url(#paint4_linear_2105_4003)"/>
<path d="M143.925 168.234C141.197 157.983 138.468 147.733 135.722 137.418C141.25 137.418 146.724 137.418 152.292 137.418C149.554 147.705 146.821 157.971 144.091 168.234C144.036 168.234 143.98 168.234 143.925 168.234Z" fill="url(#paint5_linear_2105_4003)"/>
<path d="M138.893 119.593C138.049 121.073 137.271 122.436 136.492 123.802C134.859 126.668 133.217 129.533 131.595 132.408C131.393 132.765 131.186 132.939 130.743 132.939C124.658 132.923 118.575 132.927 112.49 132.927C112.395 132.927 112.3 132.913 112.111 132.898C112.265 132.704 112.365 132.552 112.49 132.425C116.477 128.427 120.456 124.42 124.47 120.451C124.877 120.048 125.508 119.639 126.041 119.631C130.277 119.564 134.513 119.593 138.893 119.593Z" fill="url(#paint6_linear_2105_4003)"/>
<path d="M138.893 119.593C138.049 121.073 137.271 122.436 136.492 123.802C134.859 126.668 133.217 129.533 131.595 132.408C131.393 132.765 131.186 132.939 130.743 132.939C124.658 132.923 118.575 132.927 112.49 132.927C112.395 132.927 112.3 132.913 112.111 132.898C112.265 132.704 112.365 132.552 112.49 132.425C116.477 128.427 120.456 124.42 124.47 120.451C124.877 120.048 125.508 119.639 126.041 119.631C130.277 119.564 134.513 119.593 138.893 119.593Z" fill="url(#paint7_linear_2105_4003)"/>
<path d="M176 132.927C175.629 132.927 175.439 132.927 175.249 132.927C169.287 132.927 163.326 132.925 157.363 132.931C156.976 132.931 156.69 132.895 156.461 132.49C154.1 128.308 151.715 124.137 149.336 119.965C149.289 119.882 149.255 119.793 149.174 119.623C149.455 119.603 149.682 119.575 149.909 119.575C153.703 119.574 157.498 119.591 161.291 119.562C162.273 119.554 163.024 119.87 163.715 120.569C167.599 124.497 171.511 128.397 175.413 132.309C175.567 132.463 175.714 132.627 176 132.927Z" fill="url(#paint8_linear_2105_4003)"/>
<path d="M176 132.927C175.629 132.927 175.439 132.927 175.249 132.927C169.287 132.927 163.326 132.925 157.363 132.931C156.976 132.931 156.69 132.895 156.461 132.49C154.1 128.308 151.715 124.137 149.336 119.965C149.289 119.882 149.255 119.793 149.174 119.623C149.455 119.603 149.682 119.575 149.909 119.575C153.703 119.574 157.498 119.591 161.291 119.562C162.273 119.554 163.024 119.87 163.715 120.569C167.599 124.497 171.511 128.397 175.413 132.309C175.567 132.463 175.714 132.627 176 132.927Z" fill="url(#paint9_linear_2105_4003)"/>
<path d="M151.62 132.89C146.491 132.89 141.507 132.89 136.4 132.89C138.938 128.434 141.432 124.06 144.008 119.546C146.562 124.027 149.064 128.409 151.62 132.89Z" fill="url(#paint10_linear_2105_4003)"/>
<path d="M151.62 132.89C146.491 132.89 141.507 132.89 136.4 132.89C138.938 128.434 141.432 124.06 144.008 119.546C146.562 124.027 149.064 128.409 151.62 132.89Z" fill="url(#paint11_linear_2105_4003)"/>
</g>
<rect opacity="0.04" x="0.5" y="0.5" width="287" height="287" rx="111.5" stroke="#9292AF"/>
<rect opacity="0.1" x="20.5" y="20.5" width="247" height="247" rx="91.5" stroke="#9292AF"/>
<rect opacity="0.2" x="40.5" y="40.5" width="207" height="207" rx="71.5" stroke="#9292AF"/>
<rect opacity="0.4" x="60.5" y="60.5" width="167" height="167" rx="51.5" stroke="#9292AF"/>
<defs>
<filter id="filter0_dii_2105_4003" x="61" y="79" width="166" height="173" filterUnits="userSpaceOnUse" color-interpolation-filters="sRGB">
<feFlood flood-opacity="0" result="BackgroundImageFix"/>
<feColorMatrix in="SourceAlpha" type="matrix" values="0 0 0 0 0 0 0 0 0 0 0 0 0 0 0 0 0 0 127 0" result="hardAlpha"/>
<feMorphology radius="1" operator="erode" in="SourceAlpha" result="effect1_dropShadow_2105_4003"/>
<feOffset dy="25"/>
<feGaussianBlur stdDeviation="10"/>
<feComposite in2="hardAlpha" operator="out"/>
<feColorMatrix type="matrix" values="0 0 0 0 0 0 0 0 0 0 0 0 0 0 0 0 0 0 0.2 0"/>
<feBlend mode="normal" in2="BackgroundImageFix" result="effect1_dropShadow_2105_4003"/>
<feBlend mode="normal" in="SourceGraphic" in2="effect1_dropShadow_2105_4003" result="shape"/>
<feColorMatrix in="SourceAlpha" type="matrix" values="0 0 0 0 0 0 0 0 0 0 0 0 0 0 0 0 0 0 127 0" result="hardAlpha"/>
<feMorphology radius="1" operator="erode" in="SourceAlpha" result="effect2_innerShadow_2105_4003"/>
<feOffset dy="1"/>
<feGaussianBlur stdDeviation="0.5"/>
<feComposite in2="hardAlpha" operator="arithmetic" k2="-1" k3="1"/>
<feColorMatrix type="matrix" values="0 0 0 0 0.8 0 0 0 0 0.780392 0 0 0 0 0.780392 0 0 0 0.2 0"/>
<feBlend mode="normal" in2="shape" result="effect2_innerShadow_2105_4003"/>
<feColorMatrix in="SourceAlpha" type="matrix" values="0 0 0 0 0 0 0 0 0 0 0 0 0 0 0 0 0 0 127 0" result="hardAlpha"/>
<feMorphology radius="1" operator="erode" in="SourceAlpha" result="effect3_innerShadow_2105_4003"/>
<feOffset dy="-1"/>
<feGaussianBlur stdDeviation="0.5"/>
<feComposite in2="hardAlpha" operator="arithmetic" k2="-1" k3="1"/>
<feColorMatrix type="matrix" values="0 0 0 0 0.8 0 0 0 0 0.780392 0 0 0 0 0.780392 0 0 0 0.2 0"/>
<feBlend mode="normal" in2="effect2_innerShadow_2105_4003" result="effect3_innerShadow_2105_4003"/>
</filter>
<linearGradient id="paint0_linear_2105_4003" x1="162.329" y1="137.392" x2="162.329" y2="168.272" gradientUnits="userSpaceOnUse">
<stop stop-color="#5F636C"/>
<stop offset="0.435" stop-color="#9FA4AF"/>
<stop offset="1" stop-color="#6F7582"/>
</linearGradient>
<linearGradient id="paint1_linear_2105_4003" x1="194.387" y1="152.832" x2="149.936" y2="153.104" gradientUnits="userSpaceOnUse">
<stop stop-color="#531270"/>
<stop offset="1" stop-color="#F84A6D"/>
</linearGradient>
<linearGradient id="paint2_linear_2105_4003" x1="125.673" y1="137.353" x2="125.673" y2="168.434" gradientUnits="userSpaceOnUse">
<stop stop-color="#5F636C"/>
<stop offset="0.435" stop-color="#9FA4AF"/>
<stop offset="1" stop-color="#6F7582"/>
</linearGradient>
<linearGradient id="paint3_linear_2105_4003" x1="157.749" y1="152.893" x2="113.272" y2="153.164" gradientUnits="userSpaceOnUse">
<stop stop-color="#531270"/>
<stop offset="1" stop-color="#F84A6D"/>
</linearGradient>
<linearGradient id="paint4_linear_2105_4003" x1="144.007" y1="137.418" x2="144.007" y2="168.234" gradientUnits="userSpaceOnUse">
<stop stop-color="#5F636C"/>
<stop offset="0.435" stop-color="#9FA4AF"/>
<stop offset="1" stop-color="#6F7582"/>
</linearGradient>
<linearGradient id="paint5_linear_2105_4003" x1="163.444" y1="152.826" x2="136.492" y2="152.926" gradientUnits="userSpaceOnUse">
<stop stop-color="#531270"/>
<stop offset="1" stop-color="#F84A6D"/>
</linearGradient>
<linearGradient id="paint6_linear_2105_4003" x1="125.502" y1="119.587" x2="125.502" y2="132.939" gradientUnits="userSpaceOnUse">
<stop stop-color="#5F636C"/>
<stop offset="0.435" stop-color="#9FA4AF"/>
<stop offset="1" stop-color="#6F7582"/>
</linearGradient>
<linearGradient id="paint7_linear_2105_4003" x1="156.918" y1="126.263" x2="113.363" y2="126.867" gradientUnits="userSpaceOnUse">
<stop stop-color="#531270"/>
<stop offset="1" stop-color="#F84A6D"/>
</linearGradient>
<linearGradient id="paint8_linear_2105_4003" x1="162.587" y1="119.562" x2="162.587" y2="132.931" gradientUnits="userSpaceOnUse">
<stop stop-color="#5F636C"/>
<stop offset="0.435" stop-color="#9FA4AF"/>
<stop offset="1" stop-color="#6F7582"/>
</linearGradient>
<linearGradient id="paint9_linear_2105_4003" x1="194.054" y1="126.246" x2="150.429" y2="126.852" gradientUnits="userSpaceOnUse">
<stop stop-color="#531270"/>
<stop offset="1" stop-color="#F84A6D"/>
</linearGradient>
<linearGradient id="paint10_linear_2105_4003" x1="144.01" y1="119.546" x2="144.01" y2="132.89" gradientUnits="userSpaceOnUse">
<stop stop-color="#5F636C"/>
<stop offset="0.435" stop-color="#9FA4AF"/>
<stop offset="1" stop-color="#6F7582"/>
</linearGradient>
<linearGradient id="paint11_linear_2105_4003" x1="161.864" y1="126.218" x2="137.108" y2="126.413" gradientUnits="userSpaceOnUse">
<stop stop-color="#531270"/>
<stop offset="1" stop-color="#F84A6D"/>
</linearGradient>
</defs>
</svg>
