<svg width="288" height="288" viewBox="0 0 288 288" fill="none" xmlns="http://www.w3.org/2000/svg">
<g filter="url(#filter0_dii_2105_4010)">
<rect x="80.5" y="80.5" width="127" height="127" rx="31.5" stroke="#9292AF" shape-rendering="crispEdges"/>
<path d="M144.056 112.071C149.125 112.071 154.205 111.893 159.264 112.117C165.364 112.385 170.44 114.778 173.589 120.317C175.387 123.479 175.982 126.954 175.978 130.546C175.968 140.11 176.086 149.681 175.862 159.241C175.727 164.977 173.479 169.868 168.454 173.117C165.707 174.893 162.632 175.844 159.402 175.874C149.137 175.966 138.868 176.1 128.61 175.838C122.243 175.676 117.051 172.917 114.028 166.967C112.468 163.896 112 160.574 112 157.168C112 148.377 112 139.586 112 130.795C112 127.051 112.589 123.433 114.489 120.141C117.093 115.63 121.154 113.246 126.173 112.395C127.765 112.127 129.398 112.035 131.016 112.017C135.363 111.967 139.709 111.999 144.054 111.999C144.056 112.025 144.056 112.047 144.056 112.071ZM153.358 136.356C156.079 136.356 158.8 136.358 161.52 136.356C163.058 136.354 164.085 135.455 164.135 134.078C164.185 132.667 163.17 131.597 161.641 131.589C156.123 131.565 150.607 131.563 145.089 131.591C143.593 131.599 142.6 132.648 142.62 134.032C142.64 135.389 143.702 136.352 145.193 136.354C147.916 136.358 150.637 136.356 153.358 136.356ZM153.368 158.722C153.368 158.724 153.368 158.724 153.368 158.726C156.163 158.726 158.96 158.74 161.755 158.72C163.148 158.71 164.133 157.713 164.139 156.378C164.145 155.038 163.166 154.011 161.783 154.005C156.191 153.989 150.601 153.991 145.009 154.013C144.582 154.015 144.112 154.151 143.74 154.363C142.833 154.878 142.422 155.957 142.666 156.944C142.915 157.947 143.822 158.706 144.905 158.716C147.726 158.738 150.547 158.722 153.368 158.722ZM128.523 133.125C128.285 132.803 128.149 132.552 127.953 132.366C126.932 131.385 125.478 131.369 124.529 132.308C123.558 133.267 123.568 134.673 124.571 135.714C125.246 136.414 125.947 137.093 126.635 137.78C127.973 139.115 129.242 139.119 130.59 137.776C132.8 135.574 135.004 133.365 137.211 131.157C137.369 130.999 137.531 130.839 137.665 130.66C138.226 129.924 138.33 129.107 137.988 128.262C137.637 127.403 136.96 126.94 136.037 126.846C135.207 126.76 134.542 127.071 133.961 127.659C132.211 129.435 130.444 131.195 128.523 133.125ZM128.638 155.387C128.323 155.086 128.083 154.834 127.817 154.61C126.784 153.737 125.326 153.809 124.443 154.768C123.568 155.717 123.604 157.09 124.553 158.069C125.318 158.858 126.099 159.633 126.884 160.402C127.871 161.367 129.27 161.439 130.247 160.482C132.692 158.087 135.102 155.659 137.511 153.228C138.16 152.574 138.33 151.749 138.066 150.87C137.545 149.14 135.413 148.627 134.083 149.931C132.265 151.713 130.484 153.533 128.638 155.387Z" fill="url(#paint0_linear_2105_4010)"/>
<path d="M144.056 112.071C149.125 112.071 154.205 111.893 159.264 112.117C165.364 112.385 170.44 114.778 173.589 120.317C175.387 123.479 175.982 126.954 175.978 130.546C175.968 140.11 176.086 149.681 175.862 159.241C175.727 164.977 173.479 169.868 168.454 173.117C165.707 174.893 162.632 175.844 159.402 175.874C149.137 175.966 138.868 176.1 128.61 175.838C122.243 175.676 117.051 172.917 114.028 166.967C112.468 163.896 112 160.574 112 157.168C112 148.377 112 139.586 112 130.795C112 127.051 112.589 123.433 114.489 120.141C117.093 115.63 121.154 113.246 126.173 112.395C127.765 112.127 129.398 112.035 131.016 112.017C135.363 111.967 139.709 111.999 144.054 111.999C144.056 112.025 144.056 112.047 144.056 112.071ZM153.358 136.356C156.079 136.356 158.8 136.358 161.52 136.356C163.058 136.354 164.085 135.455 164.135 134.078C164.185 132.667 163.17 131.597 161.641 131.589C156.123 131.565 150.607 131.563 145.089 131.591C143.593 131.599 142.6 132.648 142.62 134.032C142.64 135.389 143.702 136.352 145.193 136.354C147.916 136.358 150.637 136.356 153.358 136.356ZM153.368 158.722C153.368 158.724 153.368 158.724 153.368 158.726C156.163 158.726 158.96 158.74 161.755 158.72C163.148 158.71 164.133 157.713 164.139 156.378C164.145 155.038 163.166 154.011 161.783 154.005C156.191 153.989 150.601 153.991 145.009 154.013C144.582 154.015 144.112 154.151 143.74 154.363C142.833 154.878 142.422 155.957 142.666 156.944C142.915 157.947 143.822 158.706 144.905 158.716C147.726 158.738 150.547 158.722 153.368 158.722ZM128.523 133.125C128.285 132.803 128.149 132.552 127.953 132.366C126.932 131.385 125.478 131.369 124.529 132.308C123.558 133.267 123.568 134.673 124.571 135.714C125.246 136.414 125.947 137.093 126.635 137.78C127.973 139.115 129.242 139.119 130.59 137.776C132.8 135.574 135.004 133.365 137.211 131.157C137.369 130.999 137.531 130.839 137.665 130.66C138.226 129.924 138.33 129.107 137.988 128.262C137.637 127.403 136.96 126.94 136.037 126.846C135.207 126.76 134.542 127.071 133.961 127.659C132.211 129.435 130.444 131.195 128.523 133.125ZM128.638 155.387C128.323 155.086 128.083 154.834 127.817 154.61C126.784 153.737 125.326 153.809 124.443 154.768C123.568 155.717 123.604 157.09 124.553 158.069C125.318 158.858 126.099 159.633 126.884 160.402C127.871 161.367 129.27 161.439 130.247 160.482C132.692 158.087 135.102 155.659 137.511 153.228C138.16 152.574 138.33 151.749 138.066 150.87C137.545 149.14 135.413 148.627 134.083 149.931C132.265 151.713 130.484 153.533 128.638 155.387Z" fill="url(#paint1_linear_2105_4010)"/>
</g>
<rect opacity="0.04" x="0.5" y="0.5" width="287" height="287" rx="111.5" stroke="#9292AF"/>
<rect opacity="0.1" x="20.5" y="20.5" width="247" height="247" rx="91.5" stroke="#9292AF"/>
<rect opacity="0.2" x="40.5" y="40.5" width="207" height="207" rx="71.5" stroke="#9292AF"/>
<rect opacity="0.4" x="60.5" y="60.5" width="167" height="167" rx="51.5" stroke="#9292AF"/>
<defs>
<filter id="filter0_dii_2105_4010" x="61" y="79" width="166" height="173" filterUnits="userSpaceOnUse" color-interpolation-filters="sRGB">
<feFlood flood-opacity="0" result="BackgroundImageFix"/>
<feColorMatrix in="SourceAlpha" type="matrix" values="0 0 0 0 0 0 0 0 0 0 0 0 0 0 0 0 0 0 127 0" result="hardAlpha"/>
<feMorphology radius="1" operator="erode" in="SourceAlpha" result="effect1_dropShadow_2105_4010"/>
<feOffset dy="25"/>
<feGaussianBlur stdDeviation="10"/>
<feComposite in2="hardAlpha" operator="out"/>
<feColorMatrix type="matrix" values="0 0 0 0 0 0 0 0 0 0 0 0 0 0 0 0 0 0 0.2 0"/>
<feBlend mode="normal" in2="BackgroundImageFix" result="effect1_dropShadow_2105_4010"/>
<feBlend mode="normal" in="SourceGraphic" in2="effect1_dropShadow_2105_4010" result="shape"/>
<feColorMatrix in="SourceAlpha" type="matrix" values="0 0 0 0 0 0 0 0 0 0 0 0 0 0 0 0 0 0 127 0" result="hardAlpha"/>
<feMorphology radius="1" operator="erode" in="SourceAlpha" result="effect2_innerShadow_2105_4010"/>
<feOffset dy="1"/>
<feGaussianBlur stdDeviation="0.5"/>
<feComposite in2="hardAlpha" operator="arithmetic" k2="-1" k3="1"/>
<feColorMatrix type="matrix" values="0 0 0 0 0.8 0 0 0 0 0.780392 0 0 0 0 0.780392 0 0 0 0.2 0"/>
<feBlend mode="normal" in2="shape" result="effect2_innerShadow_2105_4010"/>
<feColorMatrix in="SourceAlpha" type="matrix" values="0 0 0 0 0 0 0 0 0 0 0 0 0 0 0 0 0 0 127 0" result="hardAlpha"/>
<feMorphology radius="1" operator="erode" in="SourceAlpha" result="effect3_innerShadow_2105_4010"/>
<feOffset dy="-1"/>
<feGaussianBlur stdDeviation="0.5"/>
<feComposite in2="hardAlpha" operator="arithmetic" k2="-1" k3="1"/>
<feColorMatrix type="matrix" values="0 0 0 0 0.8 0 0 0 0 0.780392 0 0 0 0 0.780392 0 0 0 0.2 0"/>
<feBlend mode="normal" in2="effect2_innerShadow_2105_4010" result="effect3_innerShadow_2105_4010"/>
</filter>
<linearGradient id="paint0_linear_2105_4010" x1="144" y1="111.989" x2="144" y2="175.992" gradientUnits="userSpaceOnUse">
<stop stop-color="#5F636C"/>
<stop offset="0.435" stop-color="#9FA4AF"/>
<stop offset="1" stop-color="#6F7582"/>
</linearGradient>
<linearGradient id="paint1_linear_2105_4010" x1="219.073" y1="143.99" x2="114.978" y2="144.71" gradientUnits="userSpaceOnUse">
<stop stop-color="#531270"/>
<stop offset="1" stop-color="#F84A6D"/>
</linearGradient>
</defs>
</svg>
