<svg width="28" height="27" viewBox="0 0 28 27" fill="none" xmlns="http://www.w3.org/2000/svg">
<path fill-rule="evenodd" clip-rule="evenodd" d="M14.0724 0.510498C13.916 0.73583 13.758 0.959854 13.5982 1.18256C10.2738 5.81706 6.22029 9.87968 1.59615 13.2115C1.37419 13.3714 1.15091 13.5296 0.926331 13.6862C1.15086 13.8428 1.37409 14.0011 1.59601 14.1611C6.21911 17.4943 10.2724 21.5567 13.5981 26.1901C13.7579 26.4128 13.9159 26.6367 14.0724 26.8619C14.2287 26.6366 14.3866 26.4125 14.5463 26.1899C17.8693 21.5542 21.923 17.4915 26.5481 14.161C26.7703 14.001 26.9937 13.8428 27.2184 13.6862C26.9936 13.5297 26.7702 13.3716 26.548 13.2117C21.9217 9.88247 17.868 5.81952 14.5462 1.18286C14.3865 0.960055 14.2286 0.73593 14.0724 0.510498ZM14.072 1.84767C10.7788 6.39094 6.79226 10.3862 2.25874 13.6864C6.79127 16.9878 10.7777 20.983 14.072 25.5253C17.3637 20.9809 21.3504 16.9854 25.8849 13.6864C21.3494 10.3886 17.3625 6.39301 14.072 1.84767Z" fill="#FA7B94"/>
</svg>
