<svg width="43" height="30" viewBox="0 0 43 30" fill="none" xmlns="http://www.w3.org/2000/svg">
<path fill-rule="evenodd" clip-rule="evenodd" d="M25.9687 4.36338L17.6354 4.36338C16.1085 4.50783 15.6881 4.99744 15.552 6.44672V8.53005H11.3854C9.85852 8.6745 9.43806 9.16411 9.30202 10.6134V12.6967H7.21869C5.69185 12.8412 5.2714 13.3308 5.13536 14.78C5.2798 16.3069 5.76941 16.7273 7.21869 16.8634H9.30202V18.9467C9.44647 20.4736 9.93608 20.894 11.3854 21.03H15.552V23.1134C15.6965 24.6402 16.1861 25.0607 17.6354 25.1967H25.9687C27.4955 25.0523 27.916 24.5627 28.052 23.1134V21.03H32.2187C33.7455 20.8856 34.166 20.396 34.302 18.9467V16.8634H36.3854C37.9122 16.7189 38.3326 16.2293 38.4687 14.78C38.3242 13.2532 37.8346 12.8328 36.3854 12.6967H34.302V10.6134C34.1576 9.08655 33.668 8.66609 32.2187 8.53005H28.052V6.44672C27.9076 4.91988 27.418 4.49942 25.9687 4.36338ZM13.4687 25.1967C14.918 25.3328 15.4076 25.7532 15.552 27.28V29.3634H28.052V27.28C28.1881 25.8308 28.6085 25.3412 30.1354 25.1967H34.302V23.1134C34.4381 21.6641 34.8585 21.1745 36.3854 21.03H38.4687V18.9467C38.6047 17.4974 39.0252 17.0078 40.552 16.8634H42.6354V12.6967H40.552C39.1027 12.5607 38.6131 12.1402 38.4687 10.6134V8.53005H36.3854C34.9361 8.39401 34.4465 7.97355 34.302 6.44672V4.36338H30.1354C28.6861 4.22734 28.1965 3.80688 28.052 2.28005V0.196716H15.552V2.28005C15.416 3.72932 14.9955 4.21893 13.4687 4.36338H9.30202V6.44672C9.16598 7.89599 8.74552 8.3856 7.21869 8.53005H5.13536V10.6134C4.99931 12.0627 4.57886 12.5523 3.05202 12.6967H0.968689V16.8634H3.05202C4.5013 16.9994 4.99091 17.4199 5.13536 18.9467V21.03H7.21869C8.66796 21.1661 9.15757 21.5865 9.30202 23.1134V25.1967H13.4687ZM17.6354 12.6967C19.1622 12.5523 19.5826 12.0627 19.7187 10.6134V8.53005H23.8854V10.6134C24.0298 12.1402 24.5194 12.5607 25.9687 12.6967H28.052V16.8634H25.9687C24.4419 17.0078 24.0214 17.4974 23.8854 18.9467V21.03H19.7187V18.9467C19.5742 17.4199 19.0846 16.9994 17.6354 16.8634H15.552V12.6967H17.6354ZM21.802 16.8634C23.3289 16.7189 23.7493 16.2293 23.8854 14.78C23.7409 13.2532 23.2513 12.8328 21.802 12.6967C20.2752 12.8412 19.8547 13.3308 19.7187 14.78C19.8631 16.3069 20.3527 16.7273 21.802 16.8634Z" fill="#319D47"/>
<path fill-rule="evenodd" clip-rule="evenodd" d="M25.9687 4.36338L17.6354 4.36338C16.1085 4.50783 15.6881 4.99744 15.552 6.44672V8.53005H11.3854C9.85852 8.6745 9.43806 9.16411 9.30202 10.6134V12.6967H7.21869C5.69185 12.8412 5.2714 13.3308 5.13536 14.78C5.2798 16.3069 5.76941 16.7273 7.21869 16.8634H9.30202V18.9467C9.44647 20.4736 9.93608 20.894 11.3854 21.03H15.552V23.1134C15.6965 24.6402 16.1861 25.0607 17.6354 25.1967H25.9687C27.4955 25.0523 27.916 24.5627 28.052 23.1134V21.03H32.2187C33.7455 20.8856 34.166 20.396 34.302 18.9467V16.8634H36.3854C37.9122 16.7189 38.3326 16.2293 38.4687 14.78C38.3242 13.2532 37.8346 12.8328 36.3854 12.6967H34.302V10.6134C34.1576 9.08655 33.668 8.66609 32.2187 8.53005H28.052V6.44672C27.9076 4.91988 27.418 4.49942 25.9687 4.36338ZM13.4687 25.1967C14.918 25.3328 15.4076 25.7532 15.552 27.28V29.3634H28.052V27.28C28.1881 25.8308 28.6085 25.3412 30.1354 25.1967H34.302V23.1134C34.4381 21.6641 34.8585 21.1745 36.3854 21.03H38.4687V18.9467C38.6047 17.4974 39.0252 17.0078 40.552 16.8634H42.6354V12.6967H40.552C39.1027 12.5607 38.6131 12.1402 38.4687 10.6134V8.53005H36.3854C34.9361 8.39401 34.4465 7.97355 34.302 6.44672V4.36338H30.1354C28.6861 4.22734 28.1965 3.80688 28.052 2.28005V0.196716H15.552V2.28005C15.416 3.72932 14.9955 4.21893 13.4687 4.36338H9.30202V6.44672C9.16598 7.89599 8.74552 8.3856 7.21869 8.53005H5.13536V10.6134C4.99931 12.0627 4.57886 12.5523 3.05202 12.6967H0.968689V16.8634H3.05202C4.5013 16.9994 4.99091 17.4199 5.13536 18.9467V21.03H7.21869C8.66796 21.1661 9.15757 21.5865 9.30202 23.1134V25.1967H13.4687ZM17.6354 12.6967C19.1622 12.5523 19.5826 12.0627 19.7187 10.6134V8.53005H23.8854V10.6134C24.0298 12.1402 24.5194 12.5607 25.9687 12.6967H28.052V16.8634H25.9687C24.4419 17.0078 24.0214 17.4974 23.8854 18.9467V21.03H19.7187V18.9467C19.5742 17.4199 19.0846 16.9994 17.6354 16.8634H15.552V12.6967H17.6354ZM21.802 16.8634C23.3289 16.7189 23.7493 16.2293 23.8854 14.78C23.7409 13.2532 23.2513 12.8328 21.802 12.6967C20.2752 12.8412 19.8547 13.3308 19.7187 14.78C19.8631 16.3069 20.3527 16.7273 21.802 16.8634Z" fill="url(#paint0_linear_155_12)"/>
<defs>
<linearGradient id="paint0_linear_155_12" x1="42.6354" y1="14.78" x2="2.88293" y2="15.6326" gradientUnits="userSpaceOnUse">
<stop stop-color="#531270"/>
<stop offset="1" stop-color="#F84A6D"/>
</linearGradient>
</defs>
</svg>
