<svg width="37" height="37" viewBox="0 0 37 37" fill="none" xmlns="http://www.w3.org/2000/svg">
<path d="M19.8873 3.57373H16.8742V8.09332H19.8873V3.57373Z" fill="#319D47"/>
<path d="M19.8873 3.57373H16.8742V8.09332H19.8873V3.57373Z" fill="url(#paint0_linear_1_433)"/>
<path d="M19.8873 3.57373H16.8742V8.09332H19.8873V3.57373Z" fill="url(#paint1_linear_1_433)"/>
<path d="M9.34155 3.57373H6.32849V14.1194H9.34155V3.57373Z" fill="#319D47"/>
<path d="M9.34155 3.57373H6.32849V14.1194H9.34155V3.57373Z" fill="url(#paint2_linear_1_433)"/>
<path d="M9.34155 3.57373H6.32849V14.1194H9.34155V3.57373Z" fill="url(#paint3_linear_1_433)"/>
<path d="M19.8873 12.6129V11.1064H16.8742V12.6129H13.8611V15.626H16.8742V17.1325H19.8873V15.626H22.9003V12.6129H19.8873Z" fill="#319D47"/>
<path d="M19.8873 12.6129V11.1064H16.8742V12.6129H13.8611V15.626H16.8742V17.1325H19.8873V15.626H22.9003V12.6129H19.8873Z" fill="url(#paint4_linear_1_433)"/>
<path d="M19.8873 12.6129V11.1064H16.8742V12.6129H13.8611V15.626H16.8742V17.1325H19.8873V15.626H22.9003V12.6129H19.8873Z" fill="url(#paint5_linear_1_433)"/>
<path d="M9.34155 18.639V17.1325H6.32849V18.639H3.31543V21.6521H6.32849V23.1586H9.34155V21.6521H12.3546V18.639H9.34155Z" fill="#319D47"/>
<path d="M9.34155 18.639V17.1325H6.32849V18.639H3.31543V21.6521H6.32849V23.1586H9.34155V21.6521H12.3546V18.639H9.34155Z" fill="url(#paint6_linear_1_433)"/>
<path d="M9.34155 18.639V17.1325H6.32849V18.639H3.31543V21.6521H6.32849V23.1586H9.34155V21.6521H12.3546V18.639H9.34155Z" fill="url(#paint7_linear_1_433)"/>
<path d="M19.8873 20.1456H16.8742V33.7043H19.8873V20.1456Z" fill="#319D47"/>
<path d="M19.8873 20.1456H16.8742V33.7043H19.8873V20.1456Z" fill="url(#paint8_linear_1_433)"/>
<path d="M19.8873 20.1456H16.8742V33.7043H19.8873V20.1456Z" fill="url(#paint9_linear_1_433)"/>
<path d="M9.34155 26.1717H6.32849V33.7043H9.34155V26.1717Z" fill="#319D47"/>
<path d="M9.34155 26.1717H6.32849V33.7043H9.34155V26.1717Z" fill="url(#paint10_linear_1_433)"/>
<path d="M9.34155 26.1717H6.32849V33.7043H9.34155V26.1717Z" fill="url(#paint11_linear_1_433)"/>
<path d="M30.433 29.1848H27.4199V33.7043H30.433V29.1848Z" fill="#319D47"/>
<path d="M30.433 29.1848H27.4199V33.7043H30.433V29.1848Z" fill="url(#paint12_linear_1_433)"/>
<path d="M30.433 29.1848H27.4199V33.7043H30.433V29.1848Z" fill="url(#paint13_linear_1_433)"/>
<path d="M30.433 3.57373H27.4199V17.1325H30.433V3.57373Z" fill="#319D47"/>
<path d="M30.433 3.57373H27.4199V17.1325H30.433V3.57373Z" fill="url(#paint14_linear_1_433)"/>
<path d="M30.433 3.57373H27.4199V17.1325H30.433V3.57373Z" fill="url(#paint15_linear_1_433)"/>
<path d="M30.433 21.6521V20.1456H27.4199V21.6521H24.4069V24.6652H27.4199V26.1717H30.433V24.6652H33.446V21.6521H30.433Z" fill="#319D47"/>
<path d="M30.433 21.6521V20.1456H27.4199V21.6521H24.4069V24.6652H27.4199V26.1717H30.433V24.6652H33.446V21.6521H30.433Z" fill="url(#paint16_linear_1_433)"/>
<path d="M30.433 21.6521V20.1456H27.4199V21.6521H24.4069V24.6652H27.4199V26.1717H30.433V24.6652H33.446V21.6521H30.433Z" fill="url(#paint17_linear_1_433)"/>
<defs>
<linearGradient id="paint0_linear_1_433" x1="33.446" y1="23.1585" x2="24.8225" y2="23.3527" gradientUnits="userSpaceOnUse">
<stop stop-color="#531270"/>
<stop offset="1" stop-color="#F84A6D"/>
</linearGradient>
<linearGradient id="paint1_linear_1_433" x1="33.446" y1="23.1585" x2="24.8225" y2="23.3527" gradientUnits="userSpaceOnUse">
<stop stop-color="#531270"/>
<stop offset="1" stop-color="#F84A6D"/>
</linearGradient>
<linearGradient id="paint2_linear_1_433" x1="33.446" y1="23.1585" x2="24.8225" y2="23.3527" gradientUnits="userSpaceOnUse">
<stop stop-color="#531270"/>
<stop offset="1" stop-color="#F84A6D"/>
</linearGradient>
<linearGradient id="paint3_linear_1_433" x1="33.446" y1="23.1585" x2="24.8225" y2="23.3527" gradientUnits="userSpaceOnUse">
<stop stop-color="#531270"/>
<stop offset="1" stop-color="#F84A6D"/>
</linearGradient>
<linearGradient id="paint4_linear_1_433" x1="33.446" y1="23.1585" x2="24.8225" y2="23.3527" gradientUnits="userSpaceOnUse">
<stop stop-color="#531270"/>
<stop offset="1" stop-color="#F84A6D"/>
</linearGradient>
<linearGradient id="paint5_linear_1_433" x1="33.446" y1="23.1585" x2="24.8225" y2="23.3527" gradientUnits="userSpaceOnUse">
<stop stop-color="#531270"/>
<stop offset="1" stop-color="#F84A6D"/>
</linearGradient>
<linearGradient id="paint6_linear_1_433" x1="33.446" y1="23.1585" x2="24.8225" y2="23.3527" gradientUnits="userSpaceOnUse">
<stop stop-color="#531270"/>
<stop offset="1" stop-color="#F84A6D"/>
</linearGradient>
<linearGradient id="paint7_linear_1_433" x1="33.446" y1="23.1585" x2="24.8225" y2="23.3527" gradientUnits="userSpaceOnUse">
<stop stop-color="#531270"/>
<stop offset="1" stop-color="#F84A6D"/>
</linearGradient>
<linearGradient id="paint8_linear_1_433" x1="33.446" y1="23.1585" x2="24.8225" y2="23.3527" gradientUnits="userSpaceOnUse">
<stop stop-color="#531270"/>
<stop offset="1" stop-color="#F84A6D"/>
</linearGradient>
<linearGradient id="paint9_linear_1_433" x1="33.446" y1="23.1585" x2="24.8225" y2="23.3527" gradientUnits="userSpaceOnUse">
<stop stop-color="#531270"/>
<stop offset="1" stop-color="#F84A6D"/>
</linearGradient>
<linearGradient id="paint10_linear_1_433" x1="33.446" y1="23.1585" x2="24.8225" y2="23.3527" gradientUnits="userSpaceOnUse">
<stop stop-color="#531270"/>
<stop offset="1" stop-color="#F84A6D"/>
</linearGradient>
<linearGradient id="paint11_linear_1_433" x1="33.446" y1="23.1585" x2="24.8225" y2="23.3527" gradientUnits="userSpaceOnUse">
<stop stop-color="#531270"/>
<stop offset="1" stop-color="#F84A6D"/>
</linearGradient>
<linearGradient id="paint12_linear_1_433" x1="33.446" y1="23.1585" x2="24.8225" y2="23.3527" gradientUnits="userSpaceOnUse">
<stop stop-color="#531270"/>
<stop offset="1" stop-color="#F84A6D"/>
</linearGradient>
<linearGradient id="paint13_linear_1_433" x1="33.446" y1="23.1585" x2="24.8225" y2="23.3527" gradientUnits="userSpaceOnUse">
<stop stop-color="#531270"/>
<stop offset="1" stop-color="#F84A6D"/>
</linearGradient>
<linearGradient id="paint14_linear_1_433" x1="33.446" y1="23.1585" x2="24.8225" y2="23.3527" gradientUnits="userSpaceOnUse">
<stop stop-color="#531270"/>
<stop offset="1" stop-color="#F84A6D"/>
</linearGradient>
<linearGradient id="paint15_linear_1_433" x1="33.446" y1="23.1585" x2="24.8225" y2="23.3527" gradientUnits="userSpaceOnUse">
<stop stop-color="#531270"/>
<stop offset="1" stop-color="#F84A6D"/>
</linearGradient>
<linearGradient id="paint16_linear_1_433" x1="33.446" y1="23.1585" x2="24.8225" y2="23.3527" gradientUnits="userSpaceOnUse">
<stop stop-color="#531270"/>
<stop offset="1" stop-color="#F84A6D"/>
</linearGradient>
<linearGradient id="paint17_linear_1_433" x1="33.446" y1="23.1585" x2="24.8225" y2="23.3527" gradientUnits="userSpaceOnUse">
<stop stop-color="#531270"/>
<stop offset="1" stop-color="#F84A6D"/>
</linearGradient>
</defs>
</svg>
