<svg width="34" height="39" viewBox="0 0 34 39" fill="none" xmlns="http://www.w3.org/2000/svg">
<path fill-rule="evenodd" clip-rule="evenodd" d="M21.1668 0.810303H12.8335V2.89364C12.6975 4.34291 12.277 4.83252 10.7502 4.97697H8.66683V13.3103H10.7502C12.1994 13.4463 12.689 13.8668 12.8335 15.3936V17.477H14.9168V29.977H19.0835V17.477H21.1668V15.3936C21.3029 13.9444 21.7233 13.4548 23.2502 13.3103H25.3335V4.97697H23.2502C21.8009 4.84093 21.3113 4.42047 21.1668 2.89364V0.810303ZM12.8335 11.227C12.9779 12.7538 13.4676 13.1743 14.9168 13.3103H19.0835C20.6103 13.1659 21.0308 12.6762 21.1668 11.227V7.0603C21.0224 5.53347 20.5328 5.11301 19.0835 4.97697L14.9168 4.97697C13.39 5.12142 12.9695 5.61103 12.8335 7.0603V11.227ZM27.4168 27.8936C28.8661 28.0297 29.3557 28.4501 29.5002 29.977V32.0603C29.3641 33.5096 28.9437 33.9992 27.4168 34.1436H6.5835C5.13422 34.0076 4.64461 33.5871 4.50016 32.0603V29.977C4.63621 28.5277 5.05666 28.0381 6.5835 27.8936H10.7502V23.727H4.50016L4.50016 25.8103C4.36412 27.2596 3.94366 27.7492 2.41683 27.8936H0.333496V34.1436H2.41683C3.8661 34.2797 4.35571 34.7001 4.50016 36.227V38.3103H29.5002V36.227C29.6362 34.7777 30.0567 34.2881 31.5835 34.1436H33.6668V27.8936H31.5835C30.1342 27.7576 29.6446 27.3371 29.5002 25.8103V23.727L23.2502 23.727V27.8936L27.4168 27.8936Z" fill="#319D47"/>
<path fill-rule="evenodd" clip-rule="evenodd" d="M21.1668 0.810303H12.8335V2.89364C12.6975 4.34291 12.277 4.83252 10.7502 4.97697H8.66683V13.3103H10.7502C12.1994 13.4463 12.689 13.8668 12.8335 15.3936V17.477H14.9168V29.977H19.0835V17.477H21.1668V15.3936C21.3029 13.9444 21.7233 13.4548 23.2502 13.3103H25.3335V4.97697H23.2502C21.8009 4.84093 21.3113 4.42047 21.1668 2.89364V0.810303ZM12.8335 11.227C12.9779 12.7538 13.4676 13.1743 14.9168 13.3103H19.0835C20.6103 13.1659 21.0308 12.6762 21.1668 11.227V7.0603C21.0224 5.53347 20.5328 5.11301 19.0835 4.97697L14.9168 4.97697C13.39 5.12142 12.9695 5.61103 12.8335 7.0603V11.227ZM27.4168 27.8936C28.8661 28.0297 29.3557 28.4501 29.5002 29.977V32.0603C29.3641 33.5096 28.9437 33.9992 27.4168 34.1436H6.5835C5.13422 34.0076 4.64461 33.5871 4.50016 32.0603V29.977C4.63621 28.5277 5.05666 28.0381 6.5835 27.8936H10.7502V23.727H4.50016L4.50016 25.8103C4.36412 27.2596 3.94366 27.7492 2.41683 27.8936H0.333496V34.1436H2.41683C3.8661 34.2797 4.35571 34.7001 4.50016 36.227V38.3103H29.5002V36.227C29.6362 34.7777 30.0567 34.2881 31.5835 34.1436H33.6668V27.8936H31.5835C30.1342 27.7576 29.6446 27.3371 29.5002 25.8103V23.727L23.2502 23.727V27.8936L27.4168 27.8936Z" fill="url(#paint0_linear_2281_1389)"/>
<defs>
<linearGradient id="paint0_linear_2281_1389" x1="33.6668" y1="19.5603" x2="1.85593" y2="19.9848" gradientUnits="userSpaceOnUse">
<stop stop-color="#531270"/>
<stop offset="1" stop-color="#F84A6D"/>
</linearGradient>
</defs>
</svg>
