<svg width="38" height="39" viewBox="0 0 38 39" fill="none" xmlns="http://www.w3.org/2000/svg">
<path d="M9.68958 19.3353H11.2542V20.8999H20.6416V19.3353H22.2062V17.7708H23.7708V8.3833H22.2062V6.81873H20.6416V5.25415H11.2542V6.81873H9.68958V8.3833H8.125V17.7708H9.68958V19.3353ZM11.2542 11.5125H12.8187V9.94788H14.3833V8.3833H17.5125V9.94788H19.077V11.5125H20.6416V14.6416H19.077V16.2062H17.5125V17.7708H14.3833V16.2062H12.8187V14.6416H11.2542V11.5125Z" fill="#319D47"/>
<path d="M9.68958 19.3353H11.2542V20.8999H20.6416V19.3353H22.2062V17.7708H23.7708V8.3833H22.2062V6.81873H20.6416V5.25415H11.2542V6.81873H9.68958V8.3833H8.125V17.7708H9.68958V19.3353ZM11.2542 11.5125H12.8187V9.94788H14.3833V8.3833H17.5125V9.94788H19.077V11.5125H20.6416V14.6416H19.077V16.2062H17.5125V17.7708H14.3833V16.2062H12.8187V14.6416H11.2542V11.5125Z" fill="url(#paint0_linear_1_446)"/>
<path d="M26.8998 24.0292H25.3352V22.4646H6.5603V24.0292H4.99573V25.5937H3.43115V33.4166H6.5603V28.7229H8.12488V27.1583H9.68945V25.5937H22.2061V27.1583H23.7706V28.7229H25.3352V33.4166H28.4644V25.5937H26.8998V24.0292Z" fill="#319D47"/>
<path d="M26.8998 24.0292H25.3352V22.4646H6.5603V24.0292H4.99573V25.5937H3.43115V33.4166H6.5603V28.7229H8.12488V27.1583H9.68945V25.5937H22.2061V27.1583H23.7706V28.7229H25.3352V33.4166H28.4644V25.5937H26.8998V24.0292Z" fill="url(#paint1_linear_1_446)"/>
<path d="M33.1588 8.3833V9.94788H31.5942V11.5125H30.0297V13.077H28.4651V11.5125H25.3359V14.6416H26.9005V16.2062H31.5942V14.6416H33.1588V13.077H34.7234V11.5125H36.288V8.3833H33.1588Z" fill="#319D47"/>
<path d="M33.1588 8.3833V9.94788H31.5942V11.5125H30.0297V13.077H28.4651V11.5125H25.3359V14.6416H26.9005V16.2062H31.5942V14.6416H33.1588V13.077H34.7234V11.5125H36.288V8.3833H33.1588Z" fill="url(#paint2_linear_1_446)"/>
<defs>
<linearGradient id="paint0_linear_1_446" x1="23.7708" y1="13.077" x2="8.84029" y2="13.3012" gradientUnits="userSpaceOnUse">
<stop stop-color="#531270"/>
<stop offset="1" stop-color="#F84A6D"/>
</linearGradient>
<linearGradient id="paint1_linear_1_446" x1="28.4644" y1="27.9406" x2="4.59834" y2="28.7596" gradientUnits="userSpaceOnUse">
<stop stop-color="#531270"/>
<stop offset="1" stop-color="#F84A6D"/>
</linearGradient>
<linearGradient id="paint2_linear_1_446" x1="36.288" y1="12.2947" x2="25.8389" y2="12.5144" gradientUnits="userSpaceOnUse">
<stop stop-color="#531270"/>
<stop offset="1" stop-color="#F84A6D"/>
</linearGradient>
</defs>
</svg>
