<svg width="38" height="39" viewBox="0 0 38 39" fill="none" xmlns="http://www.w3.org/2000/svg">
<path d="M17.5638 9.97559H11.287V11.5448H9.71777V17.8217H11.287V19.3909H17.5638V17.8217H19.1331V11.5448H17.5638V9.97559ZM15.9946 16.2524H12.8562V13.114H15.9946V16.2524Z" fill="#319D47"/>
<path d="M17.5638 9.97559H11.287V11.5448H9.71777V17.8217H11.287V19.3909H17.5638V17.8217H19.1331V11.5448H17.5638V9.97559ZM15.9946 16.2524H12.8562V13.114H15.9946V16.2524Z" fill="url(#paint0_linear_1_453)"/>
<path d="M33.2555 5.26819V3.69897H5.00964V5.26819H3.44043V33.514H5.00964V35.0833H33.2555V33.514H34.8247V5.26819H33.2555ZM31.6863 22.5295H30.1171V20.9603H28.5479V19.3911H26.9786V17.8219H22.271V19.3911H20.7018V20.9603H19.1326V22.5295H17.5634V24.0988H15.9941V25.668H14.4249V27.2372H12.8557V28.8064H11.2865V30.3756H9.71729V31.9448H8.14807V30.3756H6.57886V8.40662H8.14807V6.8374H30.1171V8.40662H31.6863V22.5295ZM31.6863 30.3756H30.1171V31.9448H14.4249V30.3756H15.9941V28.8064H17.5634V27.2372H19.1326V25.668H20.7018V24.0988H22.271V22.5295H23.8402V20.9603H25.4094V22.5295H26.9786V24.0988H28.5479V25.668H30.1171V27.2372H31.6863V30.3756Z" fill="#319D47"/>
<path d="M33.2555 5.26819V3.69897H5.00964V5.26819H3.44043V33.514H5.00964V35.0833H33.2555V33.514H34.8247V5.26819H33.2555ZM31.6863 22.5295H30.1171V20.9603H28.5479V19.3911H26.9786V17.8219H22.271V19.3911H20.7018V20.9603H19.1326V22.5295H17.5634V24.0988H15.9941V25.668H14.4249V27.2372H12.8557V28.8064H11.2865V30.3756H9.71729V31.9448H8.14807V30.3756H6.57886V8.40662H8.14807V6.8374H30.1171V8.40662H31.6863V22.5295ZM31.6863 30.3756H30.1171V31.9448H14.4249V30.3756H15.9941V28.8064H17.5634V27.2372H19.1326V25.668H20.7018V24.0988H22.271V22.5295H23.8402V20.9603H25.4094V22.5295H26.9786V24.0988H28.5479V25.668H30.1171V27.2372H31.6863V30.3756Z" fill="url(#paint1_linear_1_453)"/>
<defs>
<linearGradient id="paint0_linear_1_453" x1="19.1331" y1="14.6832" x2="10.1482" y2="14.8181" gradientUnits="userSpaceOnUse">
<stop stop-color="#531270"/>
<stop offset="1" stop-color="#F84A6D"/>
</linearGradient>
<linearGradient id="paint1_linear_1_453" x1="34.8247" y1="19.3911" x2="4.87526" y2="19.8407" gradientUnits="userSpaceOnUse">
<stop stop-color="#531270"/>
<stop offset="1" stop-color="#F84A6D"/>
</linearGradient>
</defs>
</svg>
