<svg width="24" height="24" viewBox="0 0 24 24" fill="none" xmlns="http://www.w3.org/2000/svg">
<mask id="path-1-inside-1_34_1359" fill="white">
<path fill-rule="evenodd" clip-rule="evenodd" d="M12 24C18.6274 24 24 18.6274 24 12C24 5.37258 18.6274 0 12 0C5.37258 0 0 5.37258 0 12C0 18.6274 5.37258 24 12 24ZM12 24C12 15 20 12 24 12C15 12 12 4 12 0C12 9 4 12 0 12C9 12 12 20 12 24Z"/>
</mask>
<path fill-rule="evenodd" clip-rule="evenodd" d="M12 24C18.6274 24 24 18.6274 24 12C24 5.37258 18.6274 0 12 0C5.37258 0 0 5.37258 0 12C0 18.6274 5.37258 24 12 24ZM12 24C12 15 20 12 24 12C15 12 12 4 12 0C12 9 4 12 0 12C9 12 12 20 12 24Z" fill="white" fill-opacity="0.08"/>
<path fill-rule="evenodd" clip-rule="evenodd" d="M12 24C18.6274 24 24 18.6274 24 12C24 5.37258 18.6274 0 12 0C5.37258 0 0 5.37258 0 12C0 18.6274 5.37258 24 12 24ZM12 24C12 15 20 12 24 12C15 12 12 4 12 0C12 9 4 12 0 12C9 12 12 20 12 24Z" fill="url(#paint0_linear_34_1359)"/>
<path d="M23 12C23 18.0751 18.0751 23 12 23V25C19.1797 25 25 19.1797 25 12H23ZM12 1C18.0751 1 23 5.92487 23 12H25C25 4.8203 19.1797 -1 12 -1V1ZM1 12C1 5.92487 5.92487 1 12 1V-1C4.8203 -1 -1 4.8203 -1 12H1ZM12 23C5.92487 23 1 18.0751 1 12H-1C-1 19.1797 4.8203 25 12 25V23ZM13 24C13 19.844 14.8275 17.1294 17.1 15.425C19.415 13.6887 22.201 13 24 13V11C21.799 11 18.585 11.8113 15.9 13.825C13.1725 15.8706 11 19.156 11 24H13ZM24 11C19.844 11 17.1294 9.17252 15.425 6.9C13.6887 4.58499 13 1.79899 13 0H11C11 2.20102 11.8113 5.41501 13.825 8.1C15.8706 10.8275 19.156 13 24 13V11ZM11 0C11 4.15603 9.17252 6.87061 6.9 8.575C4.58499 10.3113 1.79899 11 0 11V13C2.20102 13 5.41501 12.1887 8.1 10.175C10.8275 8.12939 13 4.84397 13 0H11ZM0 13C4.15603 13 6.87061 14.8275 8.575 17.1C10.3113 19.415 11 22.201 11 24H13C13 21.799 12.1887 18.585 10.175 15.9C8.12939 13.1725 4.84397 11 0 11V13Z" fill="white" fill-opacity="0.08" mask="url(#path-1-inside-1_34_1359)"/>
<defs>
<linearGradient id="paint0_linear_34_1359" x1="24" y1="12" x2="1.09723" y2="12.3438" gradientUnits="userSpaceOnUse">
<stop stop-color="#531270"/>
<stop offset="1" stop-color="#F84A6D"/>
</linearGradient>
</defs>
</svg>
