<svg width="54" height="55" viewBox="0 0 54 55" fill="none" xmlns="http://www.w3.org/2000/svg">
<path d="M31.547 21.9468C31.547 21.3286 31.0459 20.8275 30.4278 20.8275H23.7121C23.094 20.8275 22.5929 21.3286 22.5929 21.9468C22.5929 22.5649 22.0917 23.0661 21.4736 23.0661C20.8554 23.0661 20.3543 23.5672 20.3543 24.1853V30.901C20.3543 31.5191 20.8554 32.0202 21.4736 32.0202C22.0917 32.0202 22.5929 32.5214 22.5929 33.1395C22.5929 33.7577 23.094 34.2588 23.7121 34.2588H30.4278C31.0459 34.2588 31.547 33.7577 31.547 33.1395C31.547 32.5214 32.0482 32.0202 32.6663 32.0202C33.2845 32.0202 33.7856 31.5191 33.7856 30.901V24.1853C33.7856 23.5672 33.2845 23.0661 32.6663 23.0661C32.0482 23.0661 31.547 22.5649 31.547 21.9468ZM29.3085 27.5432C29.3085 28.7795 28.3063 29.7817 27.0699 29.7817C25.8336 29.7817 24.8314 28.7795 24.8314 27.5432C24.8314 26.3068 25.8336 25.3046 27.0699 25.3046C28.3063 25.3046 29.3085 26.3068 29.3085 27.5432Z" fill="white" fill-opacity="0.08"/>
<path d="M31.547 21.9468C31.547 21.3286 31.0459 20.8275 30.4278 20.8275H23.7121C23.094 20.8275 22.5929 21.3286 22.5929 21.9468C22.5929 22.5649 22.0917 23.0661 21.4736 23.0661C20.8554 23.0661 20.3543 23.5672 20.3543 24.1853V30.901C20.3543 31.5191 20.8554 32.0202 21.4736 32.0202C22.0917 32.0202 22.5929 32.5214 22.5929 33.1395C22.5929 33.7577 23.094 34.2588 23.7121 34.2588H30.4278C31.0459 34.2588 31.547 33.7577 31.547 33.1395C31.547 32.5214 32.0482 32.0202 32.6663 32.0202C33.2845 32.0202 33.7856 31.5191 33.7856 30.901V24.1853C33.7856 23.5672 33.2845 23.0661 32.6663 23.0661C32.0482 23.0661 31.547 22.5649 31.547 21.9468ZM29.3085 27.5432C29.3085 28.7795 28.3063 29.7817 27.0699 29.7817C25.8336 29.7817 24.8314 28.7795 24.8314 27.5432C24.8314 26.3068 25.8336 25.3046 27.0699 25.3046C28.3063 25.3046 29.3085 26.3068 29.3085 27.5432Z" fill="url(#paint0_linear_123_1319)"/>
<path d="M30.4278 21.3275C30.7698 21.3275 31.047 21.6048 31.047 21.9468C31.047 22.8411 31.772 23.5661 32.6663 23.5661C33.0083 23.5661 33.2856 23.8433 33.2856 24.1853V30.901C33.2856 31.243 33.0083 31.5202 32.6663 31.5202C31.772 31.5202 31.047 32.2452 31.047 33.1395C31.047 33.4815 30.7698 33.7588 30.4278 33.7588H23.7121C23.3701 33.7588 23.0929 33.4815 23.0929 33.1395C23.0929 32.2452 22.3679 31.5202 21.4736 31.5202C21.1316 31.5202 20.8543 31.243 20.8543 30.901V24.1853C20.8543 23.8433 21.1316 23.5661 21.4736 23.5661C22.3679 23.5661 23.0929 22.8411 23.0929 21.9468C23.0929 21.6048 23.3701 21.3275 23.7121 21.3275H30.4278ZM27.0699 30.2817C28.5824 30.2817 29.8085 29.0556 29.8085 27.5432C29.8085 26.0307 28.5824 24.8046 27.0699 24.8046C25.5575 24.8046 24.3314 26.0307 24.3314 27.5432C24.3314 29.0556 25.5575 30.2817 27.0699 30.2817Z" stroke="white" stroke-opacity="0.08"/>
<path d="M49.4554 20.8275C48.2191 20.8275 47.2168 19.8253 47.2168 18.589V17.4697C47.2168 16.8515 46.7157 16.3504 46.0976 16.3504C45.4794 16.3504 44.9783 15.8493 44.9783 15.2312C44.9783 14.613 44.4772 14.1119 43.859 14.1119C43.2409 14.1119 42.7397 13.6108 42.7397 12.9926C42.7397 12.3744 42.2386 11.8733 41.6205 11.8733H40.5012C39.2649 11.8733 38.2627 10.8711 38.2627 9.63479C38.2627 8.39847 37.2604 7.39624 36.0241 7.39624H18.1157C16.8794 7.39624 15.8772 8.39847 15.8772 9.63479C15.8772 10.8711 14.875 11.8733 13.6387 11.8733H12.5194C11.9012 11.8733 11.4001 12.3744 11.4001 12.9926C11.4001 13.6108 10.899 14.1119 10.2808 14.1119C9.66268 14.1119 9.16156 14.613 9.16156 15.2312C9.16156 15.8493 8.66044 16.3504 8.04229 16.3504C7.42413 16.3504 6.92301 16.8515 6.92301 17.4697V18.589C6.92301 19.8253 5.92078 20.8275 4.68447 20.8275C3.44815 20.8275 2.44592 21.8297 2.44592 23.0661V32.0202C2.44592 33.2566 3.44815 34.2588 4.68447 34.2588C5.92078 34.2588 6.92301 35.261 6.92301 36.4973V37.6166C6.92301 38.2348 7.42413 38.7359 8.04229 38.7359C8.66044 38.7359 9.16156 39.237 9.16156 39.8552C9.16156 40.4733 9.66268 40.9744 10.2808 40.9744C10.899 40.9744 11.4001 41.4755 11.4001 42.0937C11.4001 42.7119 11.9012 43.213 12.5194 43.213H13.6387C14.875 43.213 15.8772 44.2152 15.8772 45.4515C15.8772 46.6878 16.8794 47.6901 18.1157 47.6901H36.0241C37.2604 47.6901 38.2627 46.6878 38.2627 45.4515C38.2627 44.2152 39.2649 43.213 40.5012 43.213H41.6205C42.2386 43.213 42.7397 42.7119 42.7397 42.0937C42.7397 41.4755 43.2409 40.9744 43.859 40.9744C44.4772 40.9744 44.9783 40.4733 44.9783 39.8552C44.9783 39.237 45.4794 38.7359 46.0976 38.7359C46.7157 38.7359 47.2168 38.2348 47.2168 37.6166V36.4973C47.2168 35.261 48.2191 34.2588 49.4554 34.2588C50.6917 34.2588 51.6939 33.2566 51.6939 32.0202V23.0661C51.6939 21.8297 50.6917 20.8275 49.4554 20.8275ZM47.2168 27.5432C47.2168 28.7795 46.2146 29.7817 44.9783 29.7817C43.742 29.7817 42.7397 30.7839 42.7397 32.0202V33.1395C42.7397 33.7577 42.2386 34.2588 41.6205 34.2588C41.0023 34.2588 40.5012 34.7599 40.5012 35.3781C40.5012 35.9962 40.0001 36.4973 39.3819 36.4973C38.7638 36.4973 38.2627 36.9984 38.2627 37.6166C38.2627 38.2348 37.7615 38.7359 37.1434 38.7359H36.0241C34.7878 38.7359 33.7856 39.7381 33.7856 40.9744C33.7856 42.2107 32.7833 43.213 31.547 43.213H22.5928C21.3565 43.213 20.3543 42.2107 20.3543 40.9744C20.3543 39.7381 19.3521 38.7359 18.1157 38.7359H16.9965C16.3783 38.7359 15.8772 38.2348 15.8772 37.6166C15.8772 36.9984 15.3761 36.4973 14.7579 36.4973C14.1398 36.4973 13.6387 35.9962 13.6387 35.3781C13.6387 34.7599 13.1375 34.2588 12.5194 34.2588C11.9012 34.2588 11.4001 33.7577 11.4001 33.1395V32.0202C11.4001 30.7839 10.3979 29.7817 9.16156 29.7817C7.92525 29.7817 6.92301 28.7795 6.92301 27.5432C6.92301 26.3068 7.92525 25.3046 9.16156 25.3046C10.3979 25.3046 11.4001 24.3024 11.4001 23.0661V21.9468C11.4001 21.3286 11.9012 20.8275 12.5194 20.8275C13.1375 20.8275 13.6387 20.3264 13.6387 19.7082C13.6387 19.0901 14.1398 18.589 14.7579 18.589C15.3761 18.589 15.8772 18.0879 15.8772 17.4697C15.8772 16.8515 16.3783 16.3504 16.9965 16.3504H18.1157C19.3521 16.3504 20.3543 15.3482 20.3543 14.1119C20.3543 12.8756 21.3565 11.8733 22.5928 11.8733H31.547C32.7833 11.8733 33.7856 12.8756 33.7856 14.1119C33.7856 15.3482 34.7878 16.3504 36.0241 16.3504H37.1434C37.7615 16.3504 38.2627 16.8515 38.2627 17.4697C38.2627 18.0879 38.7638 18.589 39.3819 18.589C40.0001 18.589 40.5012 19.0901 40.5012 19.7082C40.5012 20.3264 41.0023 20.8275 41.6205 20.8275C42.2386 20.8275 42.7397 21.3286 42.7397 21.9468V23.0661C42.7397 24.3024 43.742 25.3046 44.9783 25.3046C46.2146 25.3046 47.2168 26.3068 47.2168 27.5432Z" fill="white" fill-opacity="0.08"/>
<path d="M49.4554 20.8275C48.2191 20.8275 47.2168 19.8253 47.2168 18.589V17.4697C47.2168 16.8515 46.7157 16.3504 46.0976 16.3504C45.4794 16.3504 44.9783 15.8493 44.9783 15.2312C44.9783 14.613 44.4772 14.1119 43.859 14.1119C43.2409 14.1119 42.7397 13.6108 42.7397 12.9926C42.7397 12.3744 42.2386 11.8733 41.6205 11.8733H40.5012C39.2649 11.8733 38.2627 10.8711 38.2627 9.63479C38.2627 8.39847 37.2604 7.39624 36.0241 7.39624H18.1157C16.8794 7.39624 15.8772 8.39847 15.8772 9.63479C15.8772 10.8711 14.875 11.8733 13.6387 11.8733H12.5194C11.9012 11.8733 11.4001 12.3744 11.4001 12.9926C11.4001 13.6108 10.899 14.1119 10.2808 14.1119C9.66268 14.1119 9.16156 14.613 9.16156 15.2312C9.16156 15.8493 8.66044 16.3504 8.04229 16.3504C7.42413 16.3504 6.92301 16.8515 6.92301 17.4697V18.589C6.92301 19.8253 5.92078 20.8275 4.68447 20.8275C3.44815 20.8275 2.44592 21.8297 2.44592 23.0661V32.0202C2.44592 33.2566 3.44815 34.2588 4.68447 34.2588C5.92078 34.2588 6.92301 35.261 6.92301 36.4973V37.6166C6.92301 38.2348 7.42413 38.7359 8.04229 38.7359C8.66044 38.7359 9.16156 39.237 9.16156 39.8552C9.16156 40.4733 9.66268 40.9744 10.2808 40.9744C10.899 40.9744 11.4001 41.4755 11.4001 42.0937C11.4001 42.7119 11.9012 43.213 12.5194 43.213H13.6387C14.875 43.213 15.8772 44.2152 15.8772 45.4515C15.8772 46.6878 16.8794 47.6901 18.1157 47.6901H36.0241C37.2604 47.6901 38.2627 46.6878 38.2627 45.4515C38.2627 44.2152 39.2649 43.213 40.5012 43.213H41.6205C42.2386 43.213 42.7397 42.7119 42.7397 42.0937C42.7397 41.4755 43.2409 40.9744 43.859 40.9744C44.4772 40.9744 44.9783 40.4733 44.9783 39.8552C44.9783 39.237 45.4794 38.7359 46.0976 38.7359C46.7157 38.7359 47.2168 38.2348 47.2168 37.6166V36.4973C47.2168 35.261 48.2191 34.2588 49.4554 34.2588C50.6917 34.2588 51.6939 33.2566 51.6939 32.0202V23.0661C51.6939 21.8297 50.6917 20.8275 49.4554 20.8275ZM47.2168 27.5432C47.2168 28.7795 46.2146 29.7817 44.9783 29.7817C43.742 29.7817 42.7397 30.7839 42.7397 32.0202V33.1395C42.7397 33.7577 42.2386 34.2588 41.6205 34.2588C41.0023 34.2588 40.5012 34.7599 40.5012 35.3781C40.5012 35.9962 40.0001 36.4973 39.3819 36.4973C38.7638 36.4973 38.2627 36.9984 38.2627 37.6166C38.2627 38.2348 37.7615 38.7359 37.1434 38.7359H36.0241C34.7878 38.7359 33.7856 39.7381 33.7856 40.9744C33.7856 42.2107 32.7833 43.213 31.547 43.213H22.5928C21.3565 43.213 20.3543 42.2107 20.3543 40.9744C20.3543 39.7381 19.3521 38.7359 18.1157 38.7359H16.9965C16.3783 38.7359 15.8772 38.2348 15.8772 37.6166C15.8772 36.9984 15.3761 36.4973 14.7579 36.4973C14.1398 36.4973 13.6387 35.9962 13.6387 35.3781C13.6387 34.7599 13.1375 34.2588 12.5194 34.2588C11.9012 34.2588 11.4001 33.7577 11.4001 33.1395V32.0202C11.4001 30.7839 10.3979 29.7817 9.16156 29.7817C7.92525 29.7817 6.92301 28.7795 6.92301 27.5432C6.92301 26.3068 7.92525 25.3046 9.16156 25.3046C10.3979 25.3046 11.4001 24.3024 11.4001 23.0661V21.9468C11.4001 21.3286 11.9012 20.8275 12.5194 20.8275C13.1375 20.8275 13.6387 20.3264 13.6387 19.7082C13.6387 19.0901 14.1398 18.589 14.7579 18.589C15.3761 18.589 15.8772 18.0879 15.8772 17.4697C15.8772 16.8515 16.3783 16.3504 16.9965 16.3504H18.1157C19.3521 16.3504 20.3543 15.3482 20.3543 14.1119C20.3543 12.8756 21.3565 11.8733 22.5928 11.8733H31.547C32.7833 11.8733 33.7856 12.8756 33.7856 14.1119C33.7856 15.3482 34.7878 16.3504 36.0241 16.3504H37.1434C37.7615 16.3504 38.2627 16.8515 38.2627 17.4697C38.2627 18.0879 38.7638 18.589 39.3819 18.589C40.0001 18.589 40.5012 19.0901 40.5012 19.7082C40.5012 20.3264 41.0023 20.8275 41.6205 20.8275C42.2386 20.8275 42.7397 21.3286 42.7397 21.9468V23.0661C42.7397 24.3024 43.742 25.3046 44.9783 25.3046C46.2146 25.3046 47.2168 26.3068 47.2168 27.5432Z" fill="url(#paint1_linear_123_1319)"/>
<path d="M46.7168 18.589C46.7168 20.1014 47.9429 21.3275 49.4554 21.3275C50.4156 21.3275 51.1939 22.1059 51.1939 23.0661V32.0202C51.1939 32.9804 50.4156 33.7588 49.4554 33.7588C47.9429 33.7588 46.7168 34.9849 46.7168 36.4973V37.6166C46.7168 37.9586 46.4396 38.2359 46.0976 38.2359C45.2033 38.2359 44.4783 38.9609 44.4783 39.8552C44.4783 40.1972 44.201 40.4744 43.859 40.4744C42.9647 40.4744 42.2397 41.1994 42.2397 42.0937C42.2397 42.4357 41.9625 42.713 41.6205 42.713H40.5012C38.9887 42.713 37.7627 43.9391 37.7627 45.4515C37.7627 46.4117 36.9843 47.1901 36.0241 47.1901H18.1157C17.1556 47.1901 16.3772 46.4117 16.3772 45.4515C16.3772 43.9391 15.1511 42.713 13.6387 42.713H12.5194C12.1774 42.713 11.9001 42.4357 11.9001 42.0937C11.9001 41.1994 11.1751 40.4744 10.2808 40.4744C9.93882 40.4744 9.66156 40.1972 9.66156 39.8552C9.66156 38.9609 8.93659 38.2359 8.04229 38.2359C7.70027 38.2359 7.42301 37.9586 7.42301 37.6166V36.4973C7.42301 34.9849 6.19692 33.7588 4.68447 33.7588C3.7243 33.7588 2.94592 32.9804 2.94592 32.0202V23.0661C2.94592 22.1059 3.7243 21.3275 4.68447 21.3275C6.19693 21.3275 7.42301 20.1014 7.42301 18.589V17.4697C7.42301 17.1277 7.70027 16.8504 8.04229 16.8504C8.93659 16.8504 9.66156 16.1254 9.66156 15.2312C9.66156 14.8891 9.93882 14.6119 10.2808 14.6119C11.1751 14.6119 11.9001 13.8869 11.9001 12.9926C11.9001 12.6506 12.1774 12.3733 12.5194 12.3733H13.6387C15.1511 12.3733 16.3772 11.1472 16.3772 9.63479C16.3772 8.67461 17.1556 7.89624 18.1157 7.89624H36.0241C36.9843 7.89624 37.7627 8.67461 37.7627 9.63479C37.7627 11.1472 38.9887 12.3733 40.5012 12.3733H41.6205C41.9625 12.3733 42.2397 12.6506 42.2397 12.9926C42.2397 13.8869 42.9647 14.6119 43.859 14.6119C44.201 14.6119 44.4783 14.8891 44.4783 15.2312C44.4783 16.1254 45.2033 16.8504 46.0976 16.8504C46.4396 16.8504 46.7168 17.1277 46.7168 17.4697V18.589ZM44.9783 30.2817C46.4907 30.2817 47.7168 29.0556 47.7168 27.5432C47.7168 26.0307 46.4907 24.8046 44.9783 24.8046C44.0181 24.8046 43.2397 24.0262 43.2397 23.0661V21.9468C43.2397 21.0525 42.5148 20.3275 41.6205 20.3275C41.2785 20.3275 41.0012 20.0503 41.0012 19.7082C41.0012 18.8139 40.2762 18.089 39.3819 18.089C39.0399 18.089 38.7627 17.8117 38.7627 17.4697C38.7627 16.5754 38.0377 15.8504 37.1434 15.8504H36.0241C35.0639 15.8504 34.2856 15.072 34.2856 14.1119C34.2856 12.5994 33.0595 11.3733 31.547 11.3733H22.5928C21.0804 11.3733 19.8543 12.5994 19.8543 14.1119C19.8543 15.072 19.0759 15.8504 18.1157 15.8504H16.9965C16.1022 15.8504 15.3772 16.5754 15.3772 17.4697C15.3772 17.8117 15.0999 18.089 14.7579 18.089C13.8636 18.089 13.1387 18.8139 13.1387 19.7082C13.1387 20.0503 12.8614 20.3275 12.5194 20.3275C11.6251 20.3275 10.9001 21.0525 10.9001 21.9468V23.0661C10.9001 24.0262 10.1217 24.8046 9.16156 24.8046C7.6491 24.8046 6.42301 26.0307 6.42301 27.5432C6.42301 29.0556 7.6491 30.2817 9.16156 30.2817C10.1217 30.2817 10.9001 31.0601 10.9001 32.0202V33.1395C10.9001 34.0338 11.6251 34.7588 12.5194 34.7588C12.8614 34.7588 13.1387 35.036 13.1387 35.3781C13.1387 36.2724 13.8636 36.9973 14.7579 36.9973C15.0999 36.9973 15.3772 37.2746 15.3772 37.6166C15.3772 38.5109 16.1022 39.2359 16.9965 39.2359H18.1157C19.0759 39.2359 19.8543 40.0143 19.8543 40.9744C19.8543 42.4869 21.0804 43.713 22.5928 43.713H31.547C33.0595 43.713 34.2856 42.4869 34.2856 40.9744C34.2856 40.0143 35.0639 39.2359 36.0241 39.2359H37.1434C38.0377 39.2359 38.7627 38.5109 38.7627 37.6166C38.7627 37.2746 39.0399 36.9973 39.3819 36.9973C40.2762 36.9973 41.0012 36.2724 41.0012 35.3781C41.0012 35.036 41.2785 34.7588 41.6205 34.7588C42.5148 34.7588 43.2397 34.0338 43.2397 33.1395V32.0202C43.2397 31.0601 44.0181 30.2817 44.9783 30.2817Z" stroke="white" stroke-opacity="0.08"/>
<defs>
<linearGradient id="paint0_linear_123_1319" x1="33.7856" y1="27.5432" x2="20.9684" y2="27.7356" gradientUnits="userSpaceOnUse">
<stop stop-color="#531270"/>
<stop offset="1" stop-color="#F84A6D"/>
</linearGradient>
<linearGradient id="paint1_linear_123_1319" x1="51.6939" y1="27.5432" x2="4.70267" y2="28.4054" gradientUnits="userSpaceOnUse">
<stop stop-color="#531270"/>
<stop offset="1" stop-color="#F84A6D"/>
</linearGradient>
</defs>
</svg>
