<svg width="18" height="15" viewBox="0 0 18 15" fill="none" xmlns="http://www.w3.org/2000/svg">
<path d="M17.977 2.21071C17.517 2.80819 16.6265 3.75336 15.9958 4.17812C15.9958 4.01337 15.9958 4.33419 15.9958 4.17812C16.0009 7.0124 15.094 10.0558 13.0239 12.0478C10.9537 14.0397 8.00859 15.0384 5.09899 14.9989C3.41686 15.0044 1.65485 14.7393 0.145892 14.0152C0.0645221 13.9805 0.145585 14.1017 0.145892 14.0152C0.145892 13.8907 0.018062 13.0315 0.145892 13.0315C1.79938 12.9783 3.78907 13.0319 5.09899 12.0478C3.60235 12.0183 2.74685 10.4239 2.12713 9.09664C2.07985 9.16039 2.09584 9.02421 2.12713 9.09664C2.04664 9.09047 2.1744 9.0329 2.12713 9.09664C2.58199 9.1411 2.67889 9.22134 3.11775 9.09664C1.46558 8.76276 0.323559 7.77993 0.145892 6.14553C0.139581 6.06712 0.0804314 5.20792 0.145892 5.16182C0.0714564 5.13125 0.211342 5.11582 0.145892 5.16182C0.589253 5.3523 1.64257 6.14157 2.12713 6.14553C0.679439 5.22052 -0.404834 2.82585 0.145892 1.22701C0.202743 1.07165 0.970394 1.25901 1.13651 1.22701C1.02322 1.10442 1.30262 1.195 1.13651 1.22701C3.09008 3.25118 6.21258 5.02793 9.06147 5.16182C8.98856 4.87834 8.06887 4.47038 8.07085 4.17812C8.0975 2.64566 9.57738 0.802027 11.0427 0.243301C12.5079 -0.315415 13.9174 0.119459 15.0052 1.22701C15.7466 1.08949 16.3171 0.583008 16.9864 0.243301C17.0355 0.213501 17.928 0.213501 17.977 0.243301C18.0077 0.291059 18.0077 1.17925 17.977 1.22701C17.6528 1.94982 16.6906 1.80559 15.9958 2.21071C16.6042 2.14201 17.4028 2.41848 17.977 2.21071C18.0254 2.17867 17.9287 2.17867 17.977 2.21071C18.0176 2.22875 17.9651 2.16894 17.977 2.21071C18.002 2.17481 17.989 2.25248 17.977 2.21071Z" fill="white"/>
</svg>
