<svg width="46" height="45" viewBox="0 0 46 45" fill="none" xmlns="http://www.w3.org/2000/svg">
<path d="M33.1434 15.8275C32.5252 15.8275 32.0241 15.3264 32.0241 14.7083C32.0241 14.0901 31.523 13.589 30.9048 13.589C30.2867 13.589 29.7855 13.0879 29.7855 12.4697V10.2312C29.7855 9.61301 29.2844 9.1119 28.6663 9.1119C28.0481 9.1119 27.547 8.61078 27.547 7.99263V5.75408C27.547 5.13592 27.0459 4.63481 26.4277 4.63481C25.8096 4.63481 25.3085 4.13369 25.3085 3.51553V2.39626C25.3085 1.15995 24.3062 0.157715 23.0699 0.157715C21.8336 0.157715 20.8314 1.15995 20.8314 2.39626V3.51553C20.8314 4.13369 20.3302 4.63481 19.7121 4.63481C19.0939 4.63481 18.5928 5.13592 18.5928 5.75408V7.99263C18.5928 8.61078 18.0917 9.1119 17.4735 9.1119C16.8554 9.1119 16.3543 9.61301 16.3543 10.2312V12.4697C16.3543 13.0879 15.8532 13.589 15.235 13.589C14.6168 13.589 14.1157 14.0901 14.1157 14.7083C14.1157 15.3264 13.6146 15.8275 12.9965 15.8275H2.92299C1.68668 15.8275 0.684448 16.8298 0.684448 18.0661V19.1854C0.684448 19.8035 1.18556 20.3046 1.80372 20.3046C2.42188 20.3046 2.92299 20.8057 2.92299 21.4239C2.92299 22.0421 3.42411 22.5432 4.04227 22.5432C4.66042 22.5432 5.16154 23.0443 5.16154 23.6624C5.16154 24.2806 5.66266 24.7817 6.28081 24.7817C6.89897 24.7817 7.40009 25.2828 7.40009 25.901C7.40009 26.5191 7.9012 27.0203 8.51936 27.0203C9.13752 27.0203 9.63863 27.5214 9.63863 28.1395V34.8552C9.63863 35.4733 9.13752 35.9744 8.51936 35.9744C7.9012 35.9744 7.40009 36.4756 7.40009 37.0937V39.3323C7.40009 39.9504 6.89897 40.4515 6.28081 40.4515C5.66266 40.4515 5.16154 40.9527 5.16154 41.5708V42.6901C5.16154 43.9264 6.16377 44.9286 7.40009 44.9286H10.7579C11.3761 44.9286 11.8772 44.4275 11.8772 43.8094C11.8772 43.1912 12.3783 42.6901 12.9965 42.6901H15.235C15.8532 42.6901 16.3543 42.189 16.3543 41.5708C16.3543 40.9527 16.8554 40.4515 17.4735 40.4515C18.0917 40.4515 18.5928 39.9504 18.5928 39.3323C18.5928 38.7141 19.0939 38.213 19.7121 38.213H26.4277C27.0459 38.213 27.547 38.7141 27.547 39.3323C27.547 39.9504 28.0481 40.4515 28.6663 40.4515C29.2844 40.4515 29.7855 40.9527 29.7855 41.5708C29.7855 42.189 30.2867 42.6901 30.9048 42.6901H33.1434C33.7615 42.6901 34.2626 43.1912 34.2626 43.8094C34.2626 44.4275 34.7638 44.9286 35.3819 44.9286H38.7397C39.976 44.9286 40.9783 43.9264 40.9783 42.6901V41.5708C40.9783 40.9527 40.4772 40.4515 39.859 40.4515C39.2408 40.4515 38.7397 39.9504 38.7397 39.3323V37.0937C38.7397 36.4756 38.2386 35.9744 37.6205 35.9744C37.0023 35.9744 36.5012 35.4733 36.5012 34.8552V28.1395C36.5012 27.5214 37.0023 27.0203 37.6205 27.0203C38.2386 27.0203 38.7397 26.5191 38.7397 25.901C38.7397 25.2828 39.2408 24.7817 39.859 24.7817C40.4772 24.7817 40.9783 24.2806 40.9783 23.6624C40.9783 23.0443 41.4794 22.5432 42.0975 22.5432C42.7157 22.5432 43.2168 22.0421 43.2168 21.4239C43.2168 20.8057 43.7179 20.3046 44.3361 20.3046C44.9543 20.3046 45.4554 19.8035 45.4554 19.1854V18.0661C45.4554 16.8298 44.4531 15.8275 43.2168 15.8275H33.1434ZM33.1434 22.5432C32.5252 22.5432 32.0241 23.0443 32.0241 23.6624C32.0241 24.2806 31.523 24.7817 30.9048 24.7817C30.2867 24.7817 29.7855 25.2828 29.7855 25.901V28.1395C29.7855 28.7577 30.2867 29.2588 30.9048 29.2588C31.523 29.2588 32.0241 29.7599 32.0241 30.3781V31.4974C32.0241 32.7337 31.0219 33.7359 29.7855 33.7359H28.6663C28.0481 33.7359 27.547 33.2348 27.547 32.6166C27.547 31.9985 27.0459 31.4974 26.4277 31.4974H19.7121C19.0939 31.4974 18.5928 31.9985 18.5928 32.6166C18.5928 33.2348 18.0917 33.7359 17.4735 33.7359H16.3543C15.118 33.7359 14.1157 32.7337 14.1157 31.4974V30.3781C14.1157 29.7599 14.6168 29.2588 15.235 29.2588C15.8532 29.2588 16.3543 28.7577 16.3543 28.1395V25.901C16.3543 25.2828 15.8532 24.7817 15.235 24.7817C14.6168 24.7817 14.1157 24.2806 14.1157 23.6624C14.1157 23.0443 13.6146 22.5432 12.9965 22.5432C12.3783 22.5432 11.8772 22.0421 11.8772 21.4239C11.8772 20.8057 12.3783 20.3046 12.9965 20.3046H17.4735C18.0917 20.3046 18.5928 19.8035 18.5928 19.1854C18.5928 18.5672 19.0939 18.0661 19.7121 18.0661C20.3302 18.0661 20.8314 17.565 20.8314 16.9468V15.8275C20.8314 14.5912 21.8336 13.589 23.0699 13.589C24.3062 13.589 25.3085 14.5912 25.3085 15.8275V16.9468C25.3085 17.565 25.8096 18.0661 26.4277 18.0661C27.0459 18.0661 27.547 18.5672 27.547 19.1854C27.547 19.8035 28.0481 20.3046 28.6663 20.3046H33.1434C33.7615 20.3046 34.2626 20.8057 34.2626 21.4239C34.2626 22.0421 33.7615 22.5432 33.1434 22.5432Z" fill="white" fill-opacity="0.08"/>
<path d="M33.1434 15.8275C32.5252 15.8275 32.0241 15.3264 32.0241 14.7083C32.0241 14.0901 31.523 13.589 30.9048 13.589C30.2867 13.589 29.7855 13.0879 29.7855 12.4697V10.2312C29.7855 9.61301 29.2844 9.1119 28.6663 9.1119C28.0481 9.1119 27.547 8.61078 27.547 7.99263V5.75408C27.547 5.13592 27.0459 4.63481 26.4277 4.63481C25.8096 4.63481 25.3085 4.13369 25.3085 3.51553V2.39626C25.3085 1.15995 24.3062 0.157715 23.0699 0.157715C21.8336 0.157715 20.8314 1.15995 20.8314 2.39626V3.51553C20.8314 4.13369 20.3302 4.63481 19.7121 4.63481C19.0939 4.63481 18.5928 5.13592 18.5928 5.75408V7.99263C18.5928 8.61078 18.0917 9.1119 17.4735 9.1119C16.8554 9.1119 16.3543 9.61301 16.3543 10.2312V12.4697C16.3543 13.0879 15.8532 13.589 15.235 13.589C14.6168 13.589 14.1157 14.0901 14.1157 14.7083C14.1157 15.3264 13.6146 15.8275 12.9965 15.8275H2.92299C1.68668 15.8275 0.684448 16.8298 0.684448 18.0661V19.1854C0.684448 19.8035 1.18556 20.3046 1.80372 20.3046C2.42188 20.3046 2.92299 20.8057 2.92299 21.4239C2.92299 22.0421 3.42411 22.5432 4.04227 22.5432C4.66042 22.5432 5.16154 23.0443 5.16154 23.6624C5.16154 24.2806 5.66266 24.7817 6.28081 24.7817C6.89897 24.7817 7.40009 25.2828 7.40009 25.901C7.40009 26.5191 7.9012 27.0203 8.51936 27.0203C9.13752 27.0203 9.63863 27.5214 9.63863 28.1395V34.8552C9.63863 35.4733 9.13752 35.9744 8.51936 35.9744C7.9012 35.9744 7.40009 36.4756 7.40009 37.0937V39.3323C7.40009 39.9504 6.89897 40.4515 6.28081 40.4515C5.66266 40.4515 5.16154 40.9527 5.16154 41.5708V42.6901C5.16154 43.9264 6.16377 44.9286 7.40009 44.9286H10.7579C11.3761 44.9286 11.8772 44.4275 11.8772 43.8094C11.8772 43.1912 12.3783 42.6901 12.9965 42.6901H15.235C15.8532 42.6901 16.3543 42.189 16.3543 41.5708C16.3543 40.9527 16.8554 40.4515 17.4735 40.4515C18.0917 40.4515 18.5928 39.9504 18.5928 39.3323C18.5928 38.7141 19.0939 38.213 19.7121 38.213H26.4277C27.0459 38.213 27.547 38.7141 27.547 39.3323C27.547 39.9504 28.0481 40.4515 28.6663 40.4515C29.2844 40.4515 29.7855 40.9527 29.7855 41.5708C29.7855 42.189 30.2867 42.6901 30.9048 42.6901H33.1434C33.7615 42.6901 34.2626 43.1912 34.2626 43.8094C34.2626 44.4275 34.7638 44.9286 35.3819 44.9286H38.7397C39.976 44.9286 40.9783 43.9264 40.9783 42.6901V41.5708C40.9783 40.9527 40.4772 40.4515 39.859 40.4515C39.2408 40.4515 38.7397 39.9504 38.7397 39.3323V37.0937C38.7397 36.4756 38.2386 35.9744 37.6205 35.9744C37.0023 35.9744 36.5012 35.4733 36.5012 34.8552V28.1395C36.5012 27.5214 37.0023 27.0203 37.6205 27.0203C38.2386 27.0203 38.7397 26.5191 38.7397 25.901C38.7397 25.2828 39.2408 24.7817 39.859 24.7817C40.4772 24.7817 40.9783 24.2806 40.9783 23.6624C40.9783 23.0443 41.4794 22.5432 42.0975 22.5432C42.7157 22.5432 43.2168 22.0421 43.2168 21.4239C43.2168 20.8057 43.7179 20.3046 44.3361 20.3046C44.9543 20.3046 45.4554 19.8035 45.4554 19.1854V18.0661C45.4554 16.8298 44.4531 15.8275 43.2168 15.8275H33.1434ZM33.1434 22.5432C32.5252 22.5432 32.0241 23.0443 32.0241 23.6624C32.0241 24.2806 31.523 24.7817 30.9048 24.7817C30.2867 24.7817 29.7855 25.2828 29.7855 25.901V28.1395C29.7855 28.7577 30.2867 29.2588 30.9048 29.2588C31.523 29.2588 32.0241 29.7599 32.0241 30.3781V31.4974C32.0241 32.7337 31.0219 33.7359 29.7855 33.7359H28.6663C28.0481 33.7359 27.547 33.2348 27.547 32.6166C27.547 31.9985 27.0459 31.4974 26.4277 31.4974H19.7121C19.0939 31.4974 18.5928 31.9985 18.5928 32.6166C18.5928 33.2348 18.0917 33.7359 17.4735 33.7359H16.3543C15.118 33.7359 14.1157 32.7337 14.1157 31.4974V30.3781C14.1157 29.7599 14.6168 29.2588 15.235 29.2588C15.8532 29.2588 16.3543 28.7577 16.3543 28.1395V25.901C16.3543 25.2828 15.8532 24.7817 15.235 24.7817C14.6168 24.7817 14.1157 24.2806 14.1157 23.6624C14.1157 23.0443 13.6146 22.5432 12.9965 22.5432C12.3783 22.5432 11.8772 22.0421 11.8772 21.4239C11.8772 20.8057 12.3783 20.3046 12.9965 20.3046H17.4735C18.0917 20.3046 18.5928 19.8035 18.5928 19.1854C18.5928 18.5672 19.0939 18.0661 19.7121 18.0661C20.3302 18.0661 20.8314 17.565 20.8314 16.9468V15.8275C20.8314 14.5912 21.8336 13.589 23.0699 13.589C24.3062 13.589 25.3085 14.5912 25.3085 15.8275V16.9468C25.3085 17.565 25.8096 18.0661 26.4277 18.0661C27.0459 18.0661 27.547 18.5672 27.547 19.1854C27.547 19.8035 28.0481 20.3046 28.6663 20.3046H33.1434C33.7615 20.3046 34.2626 20.8057 34.2626 21.4239C34.2626 22.0421 33.7615 22.5432 33.1434 22.5432Z" fill="url(#paint0_linear_123_1335)"/>
<path d="M31.5241 14.7083C31.5241 15.6026 32.2491 16.3275 33.1434 16.3275H43.2168C44.177 16.3275 44.9554 17.1059 44.9554 18.0661V19.1854C44.9554 19.5274 44.6781 19.8046 44.3361 19.8046C43.4418 19.8046 42.7168 20.5296 42.7168 21.4239C42.7168 21.7659 42.4396 22.0432 42.0975 22.0432C41.2032 22.0432 40.4783 22.7681 40.4783 23.6624C40.4783 24.0045 40.201 24.2817 39.859 24.2817C38.9647 24.2817 38.2397 25.0067 38.2397 25.901C38.2397 26.243 37.9625 26.5203 37.6205 26.5203C36.7262 26.5203 36.0012 27.2452 36.0012 28.1395V34.8552C36.0012 35.7495 36.7262 36.4744 37.6205 36.4744C37.9625 36.4744 38.2397 36.7517 38.2397 37.0937V39.3323C38.2397 40.2266 38.9647 40.9515 39.859 40.9515C40.201 40.9515 40.4783 41.2288 40.4783 41.5708V42.6901C40.4783 43.6503 39.6999 44.4286 38.7397 44.4286H35.3819C35.0399 44.4286 34.7626 44.1514 34.7626 43.8094C34.7626 42.9151 34.0377 42.1901 33.1434 42.1901H30.9048C30.5628 42.1901 30.2855 41.9128 30.2855 41.5708C30.2855 40.6765 29.5606 39.9515 28.6663 39.9515C28.3243 39.9515 28.047 39.6743 28.047 39.3323C28.047 38.438 27.322 37.713 26.4277 37.713H19.7121C18.8178 37.713 18.0928 38.438 18.0928 39.3323C18.0928 39.6743 17.8156 39.9515 17.4735 39.9515C16.5792 39.9515 15.8543 40.6765 15.8543 41.5708C15.8543 41.9128 15.577 42.1901 15.235 42.1901H12.9965C12.1021 42.1901 11.3772 42.9151 11.3772 43.8094C11.3772 44.1514 11.0999 44.4286 10.7579 44.4286H7.40009C6.43991 44.4286 5.66154 43.6503 5.66154 42.6901V41.5708C5.66154 41.2288 5.9388 40.9515 6.28081 40.9515C7.17511 40.9515 7.90009 40.2266 7.90009 39.3323V37.0937C7.90009 36.7517 8.17734 36.4744 8.51936 36.4744C9.41366 36.4744 10.1386 35.7495 10.1386 34.8552V28.1395C10.1386 27.2452 9.41366 26.5203 8.51936 26.5203C8.17734 26.5203 7.90009 26.243 7.90009 25.901C7.90009 25.0067 7.17511 24.2817 6.28081 24.2817C5.9388 24.2817 5.66154 24.0045 5.66154 23.6624C5.66154 22.7681 4.93657 22.0432 4.04227 22.0432C3.70025 22.0432 3.42299 21.7659 3.42299 21.4239C3.42299 20.5296 2.69802 19.8046 1.80372 19.8046C1.46171 19.8046 1.18445 19.5274 1.18445 19.1854V18.0661C1.18445 17.1059 1.96282 16.3275 2.92299 16.3275H12.9965C13.8907 16.3275 14.6157 15.6026 14.6157 14.7083C14.6157 14.3662 14.893 14.089 15.235 14.089C16.1293 14.089 16.8543 13.364 16.8543 12.4697V10.2312C16.8543 9.88916 17.1315 9.6119 17.4735 9.6119C18.3678 9.6119 19.0928 8.88692 19.0928 7.99263V5.75408C19.0928 5.41206 19.3701 5.13481 19.7121 5.13481C20.6064 5.13481 21.3314 4.40983 21.3314 3.51553V2.39626C21.3314 1.43609 22.1097 0.657715 23.0699 0.657715C24.0301 0.657715 24.8085 1.43609 24.8085 2.39626V3.51553C24.8085 4.40983 25.5334 5.13481 26.4277 5.13481C26.7697 5.13481 27.047 5.41206 27.047 5.75408V7.99263C27.047 8.88692 27.772 9.6119 28.6663 9.6119C29.0083 9.6119 29.2855 9.88916 29.2855 10.2312V12.4697C29.2855 13.364 30.0105 14.089 30.9048 14.089C31.2468 14.089 31.5241 14.3662 31.5241 14.7083ZM32.5241 23.6624C32.5241 23.3204 32.8013 23.0432 33.1434 23.0432C34.0377 23.0432 34.7626 22.3182 34.7626 21.4239C34.7626 20.5296 34.0377 19.8046 33.1434 19.8046H28.6663C28.3243 19.8046 28.047 19.5274 28.047 19.1854C28.047 18.2911 27.322 17.5661 26.4277 17.5661C26.0857 17.5661 25.8085 17.2888 25.8085 16.9468V15.8275C25.8085 14.3151 24.5824 13.089 23.0699 13.089C21.5575 13.089 20.3314 14.3151 20.3314 15.8275V16.9468C20.3314 17.2888 20.0541 17.5661 19.7121 17.5661C18.8178 17.5661 18.0928 18.2911 18.0928 19.1854C18.0928 19.5274 17.8156 19.8046 17.4735 19.8046H12.9965C12.1021 19.8046 11.3772 20.5296 11.3772 21.4239C11.3772 22.3182 12.1021 23.0432 12.9965 23.0432C13.3385 23.0432 13.6157 23.3204 13.6157 23.6624C13.6157 24.5567 14.3407 25.2817 15.235 25.2817C15.577 25.2817 15.8543 25.559 15.8543 25.901V28.1395C15.8543 28.4816 15.577 28.7588 15.235 28.7588C14.3407 28.7588 13.6157 29.4838 13.6157 30.3781V31.4974C13.6157 33.0098 14.8418 34.2359 16.3543 34.2359H17.4735C18.3678 34.2359 19.0928 33.5109 19.0928 32.6166C19.0928 32.2746 19.3701 31.9974 19.7121 31.9974H26.4277C26.7697 31.9974 27.047 32.2746 27.047 32.6166C27.047 33.5109 27.772 34.2359 28.6663 34.2359H29.7855C31.298 34.2359 32.5241 33.0098 32.5241 31.4974V30.3781C32.5241 29.4838 31.7991 28.7588 30.9048 28.7588C30.5628 28.7588 30.2855 28.4816 30.2855 28.1395V25.901C30.2855 25.559 30.5628 25.2817 30.9048 25.2817C31.7991 25.2817 32.5241 24.5567 32.5241 23.6624Z" stroke="white" stroke-opacity="0.08"/>
<defs>
<linearGradient id="paint0_linear_123_1335" x1="45.4554" y1="22.5432" x2="2.73129" y2="23.1846" gradientUnits="userSpaceOnUse">
<stop stop-color="#531270"/>
<stop offset="1" stop-color="#F84A6D"/>
</linearGradient>
</defs>
</svg>
